<svg id="visual" viewBox="0 0 900 450" width="900" height="450" xmlns="http://www.w3.org/2000/svg" xmlns:xlink="http://www.w3.org/1999/xlink" version="1.1"><path d="M0 138L39 138L39 132L78 132L78 145L117 145L117 132L157 132L157 159L196 159L196 141L235 141L235 122L274 122L274 143L313 143L313 122L352 122L352 159L391 159L391 176L430 176L430 153L470 153L470 177L509 177L509 127L548 127L548 125L587 125L587 160L626 160L626 150L665 150L665 176L704 176L704 134L743 134L743 175L783 175L783 131L822 131L822 154L861 154L861 179L900 179L900 126L900 0L900 0L861 0L861 0L822 0L822 0L783 0L783 0L743 0L743 0L704 0L704 0L665 0L665 0L626 0L626 0L587 0L587 0L548 0L548 0L509 0L509 0L470 0L470 0L430 0L430 0L391 0L391 0L352 0L352 0L313 0L313 0L274 0L274 0L235 0L235 0L196 0L196 0L157 0L157 0L117 0L117 0L78 0L78 0L39 0L39 0L0 0Z" fill="#34c39c"></path><path d="M0 158L39 158L39 133L78 133L78 143L117 143L117 159L157 159L157 164L196 164L196 110L235 110L235 117L274 117L274 124L313 124L313 154L352 154L352 128L391 128L391 158L430 158L430 128L470 128L470 136L509 136L509 148L548 148L548 157L587 157L587 162L626 162L626 137L665 137L665 155L704 155L704 126L743 126L743 119L783 119L783 160L822 160L822 128L861 128L861 116L900 116L900 137L900 0L900 0L861 0L861 0L822 0L822 0L783 0L783 0L743 0L743 0L704 0L704 0L665 0L665 0L626 0L626 0L587 0L587 0L548 0L548 0L509 0L509 0L470 0L470 0L430 0L430 0L391 0L391 0L352 0L352 0L313 0L313 0L274 0L274 0L235 0L235 0L196 0L196 0L157 0L157 0L117 0L117 0L78 0L78 0L39 0L39 0L0 0Z" fill="#3ac99a"></path><path d="M0 149L39 149L39 140L78 140L78 139L117 139L117 109L157 109L157 147L196 147L196 114L235 114L235 143L274 143L274 119L313 119L313 150L352 150L352 151L391 151L391 105L430 105L430 144L470 144L470 106L509 106L509 104L548 104L548 112L587 112L587 112L626 112L626 140L665 140L665 139L704 139L704 130L743 130L743 113L783 113L783 129L822 129L822 100L861 100L861 148L900 148L900 149L900 0L900 0L861 0L861 0L822 0L822 0L783 0L783 0L743 0L743 0L704 0L704 0L665 0L665 0L626 0L626 0L587 0L587 0L548 0L548 0L509 0L509 0L470 0L470 0L430 0L430 0L391 0L391 0L352 0L352 0L313 0L313 0L274 0L274 0L235 0L235 0L196 0L196 0L157 0L157 0L117 0L117 0L78 0L78 0L39 0L39 0L0 0Z" fill="#42cf96"></path><path d="M0 115L39 115L39 116L78 116L78 97L117 97L117 135L157 135L157 105L196 105L196 96L235 96L235 137L274 137L274 122L313 122L313 126L352 126L352 125L391 125L391 114L430 114L430 137L470 137L470 107L509 107L509 99L548 99L548 110L587 110L587 119L626 119L626 133L665 133L665 130L704 130L704 125L743 125L743 119L783 119L783 94L822 94L822 135L861 135L861 132L900 132L900 90L900 0L900 0L861 0L861 0L822 0L822 0L783 0L783 0L743 0L743 0L704 0L704 0L665 0L665 0L626 0L626 0L587 0L587 0L548 0L548 0L509 0L509 0L470 0L470 0L430 0L430 0L391 0L391 0L352 0L352 0L313 0L313 0L274 0L274 0L235 0L235 0L196 0L196 0L157 0L157 0L117 0L117 0L78 0L78 0L39 0L39 0L0 0Z" fill="#4cd692"></path><path d="M0 118L39 118L39 87L78 87L78 107L117 107L117 78L157 78L157 77L196 77L196 88L235 88L235 83L274 83L274 108L313 108L313 111L352 111L352 104L391 104L391 90L430 90L430 87L470 87L470 108L509 108L509 100L548 100L548 111L587 111L587 112L626 112L626 87L665 87L665 99L704 99L704 119L743 119L743 118L783 118L783 79L822 79L822 116L861 116L861 113L900 113L900 77L900 0L900 0L861 0L861 0L822 0L822 0L783 0L783 0L743 0L743 0L704 0L704 0L665 0L665 0L626 0L626 0L587 0L587 0L548 0L548 0L509 0L509 0L470 0L470 0L430 0L430 0L391 0L391 0L352 0L352 0L313 0L313 0L274 0L274 0L235 0L235 0L196 0L196 0L157 0L157 0L117 0L117 0L78 0L78 0L39 0L39 0L0 0Z" fill="#58db8d"></path><path d="M0 90L39 90L39 88L78 88L78 97L117 97L117 93L157 93L157 107L196 107L196 96L235 96L235 79L274 79L274 106L313 106L313 71L352 71L352 103L391 103L391 72L430 72L430 96L470 96L470 109L509 109L509 66L548 66L548 88L587 88L587 67L626 67L626 84L665 84L665 86L704 86L704 106L743 106L743 67L783 67L783 67L822 67L822 108L861 108L861 86L900 86L900 106L900 0L900 0L861 0L861 0L822 0L822 0L783 0L783 0L743 0L743 0L704 0L704 0L665 0L665 0L626 0L626 0L587 0L587 0L548 0L548 0L509 0L509 0L470 0L470 0L430 0L430 0L391 0L391 0L352 0L352 0L313 0L313 0L274 0L274 0L235 0L235 0L196 0L196 0L157 0L157 0L117 0L117 0L78 0L78 0L39 0L39 0L0 0Z" fill="#64e188"></path><path d="M0 61L39 61L39 65L78 65L78 88L117 88L117 71L157 71L157 70L196 70L196 85L235 85L235 67L274 67L274 73L313 73L313 75L352 75L352 85L391 85L391 71L430 71L430 89L470 89L470 64L509 64L509 84L548 84L548 71L587 71L587 71L626 71L626 57L665 57L665 54L704 54L704 84L743 84L743 72L783 72L783 85L822 85L822 55L861 55L861 68L900 68L900 65L900 0L900 0L861 0L861 0L822 0L822 0L783 0L783 0L743 0L743 0L704 0L704 0L665 0L665 0L626 0L626 0L587 0L587 0L548 0L548 0L509 0L509 0L470 0L470 0L430 0L430 0L391 0L391 0L352 0L352 0L313 0L313 0L274 0L274 0L235 0L235 0L196 0L196 0L157 0L157 0L117 0L117 0L78 0L78 0L39 0L39 0L0 0Z" fill="#71e782"></path><path d="M0 54L39 54L39 68L78 68L78 65L117 65L117 62L157 62L157 66L196 66L196 45L235 45L235 49L274 49L274 60L313 60L313 65L352 65L352 73L391 73L391 62L430 62L430 68L470 68L470 56L509 56L509 45L548 45L548 63L587 63L587 79L626 79L626 77L665 77L665 72L704 72L704 68L743 68L743 69L783 69L783 53L822 53L822 63L861 63L861 70L900 70L900 79L900 0L900 0L861 0L861 0L822 0L822 0L783 0L783 0L743 0L743 0L704 0L704 0L665 0L665 0L626 0L626 0L587 0L587 0L548 0L548 0L509 0L509 0L470 0L470 0L430 0L430 0L391 0L391 0L352 0L352 0L313 0L313 0L274 0L274 0L235 0L235 0L196 0L196 0L157 0L157 0L117 0L117 0L78 0L78 0L39 0L39 0L0 0Z" fill="#7eec7b"></path><path d="M0 64L39 64L39 62L78 62L78 36L117 36L117 35L157 35L157 46L196 46L196 42L235 42L235 33L274 33L274 34L313 34L313 53L352 53L352 44L391 44L391 52L430 52L430 41L470 41L470 53L509 53L509 58L548 58L548 63L587 63L587 64L626 64L626 48L665 48L665 51L704 51L704 54L743 54L743 63L783 63L783 38L822 38L822 67L861 67L861 50L900 50L900 38L900 0L900 0L861 0L861 0L822 0L822 0L783 0L783 0L743 0L743 0L704 0L704 0L665 0L665 0L626 0L626 0L587 0L587 0L548 0L548 0L509 0L509 0L470 0L470 0L430 0L430 0L391 0L391 0L352 0L352 0L313 0L313 0L274 0L274 0L235 0L235 0L196 0L196 0L157 0L157 0L117 0L117 0L78 0L78 0L39 0L39 0L0 0Z" fill="#8cf174"></path><path d="M0 52L39 52L39 54L78 54L78 25L117 25L117 52L157 52L157 45L196 45L196 36L235 36L235 36L274 36L274 44L313 44L313 28L352 28L352 42L391 42L391 54L430 54L430 26L470 26L470 42L509 42L509 27L548 27L548 34L587 34L587 46L626 46L626 23L665 23L665 38L704 38L704 47L743 47L743 46L783 46L783 51L822 51L822 30L861 30L861 51L900 51L900 41L900 0L900 0L861 0L861 0L822 0L822 0L783 0L783 0L743 0L743 0L704 0L704 0L665 0L665 0L626 0L626 0L587 0L587 0L548 0L548 0L509 0L509 0L470 0L470 0L430 0L430 0L391 0L391 0L352 0L352 0L313 0L313 0L274 0L274 0L235 0L235 0L196 0L196 0L157 0L157 0L117 0L117 0L78 0L78 0L39 0L39 0L0 0Z" fill="#9bf66c"></path><path d="M0 32L39 32L39 15L78 15L78 35L117 35L117 31L157 31L157 16L196 16L196 34L235 34L235 19L274 19L274 17L313 17L313 18L352 18L352 16L391 16L391 26L430 26L430 29L470 29L470 15L509 15L509 35L548 35L548 18L587 18L587 11L626 11L626 26L665 26L665 26L704 26L704 37L743 37L743 18L783 18L783 35L822 35L822 22L861 22L861 23L900 23L900 15L900 0L900 0L861 0L861 0L822 0L822 0L783 0L783 0L743 0L743 0L704 0L704 0L665 0L665 0L626 0L626 0L587 0L587 0L548 0L548 0L509 0L509 0L470 0L470 0L430 0L430 0L391 0L391 0L352 0L352 0L313 0L313 0L274 0L274 0L235 0L235 0L196 0L196 0L157 0L157 0L117 0L117 0L78 0L78 0L39 0L39 0L0 0Z" fill="#aafb64"></path><path d="M0 3L39 3L39 24L78 24L78 17L117 17L117 14L157 14L157 27L196 27L196 7L235 7L235 5L274 5L274 21L313 21L313 13L352 13L352 18L391 18L391 9L430 9L430 11L470 11L470 3L509 3L509 13L548 13L548 0L587 0L587 0L626 0L626 4L665 4L665 1L704 1L704 10L743 10L743 0L783 0L783 19L822 19L822 26L861 26L861 9L900 9L900 4L900 0L900 0L861 0L861 0L822 0L822 0L783 0L783 0L743 0L743 0L704 0L704 0L665 0L665 0L626 0L626 0L587 0L587 0L548 0L548 0L509 0L509 0L470 0L470 0L430 0L430 0L391 0L391 0L352 0L352 0L313 0L313 0L274 0L274 0L235 0L235 0L196 0L196 0L157 0L157 0L117 0L117 0L78 0L78 0L39 0L39 0L0 0Z" fill="#baff5b"></path></svg>