<svg xmlns="http://www.w3.org/2000/svg" xmlns:xlink="http://www.w3.org/1999/xlink" version="1.1" x="0px" y="0px" viewBox="0 0 32 40" enable-background="new 0 0 32 32" xml:space="preserve"><path d="M27.321,15.181l-6.76,4.214c0.107-0.278,0.173-0.578,0.173-0.895c0-0.188-0.024-0.369-0.063-0.545  c2.309-0.228,4.125-2.158,4.125-4.527c0-1.063-0.506-2.296-1.353-3.3l-2.171-2.575c0.075-0.088,0.125-0.198,0.125-0.322  c0-0.276-0.224-0.5-0.5-0.5h-0.015l0.661-1.715c0.299-0.752,0.069-1.154-0.094-1.328c-0.112-0.119-0.436-0.377-1.007-0.188  l-0.696,0.232L19.051,3.21c-0.373-0.281-0.935-0.28-1.306-0.001l-0.697,0.523L16.352,3.5c-0.574-0.188-0.895,0.068-1.007,0.188  c-0.163,0.174-0.393,0.576-0.096,1.322l0.663,1.721h-0.015c-0.276,0-0.5,0.224-0.5,0.5c0,0.125,0.05,0.234,0.125,0.322l-2.171,2.575  c-0.847,1.004-1.353,2.238-1.353,3.302c0,0.929,0.296,1.818,0.811,2.57h-1.575c-0.688,0-1.574,0.367-2.061,0.854l-1.458,1.458  C7.622,17.574,6.997,17,6.234,17H3.5C2.673,17,2,17.673,2,18.5v8C2,27.327,2.673,28,3.5,28h2.734c0.651,0,1.201-0.419,1.408-1  h10.092c1.229,0,2.907-0.645,3.821-1.466l7.857-7.075C29.792,18.082,30,17.581,30,17.048C30,15.725,28.675,14.687,27.321,15.181z   M6.734,26.5c0,0.275-0.225,0.5-0.5,0.5H3.5C3.225,27,3,26.775,3,26.5v-8C3,18.225,3.225,18,3.5,18h2.734c0.275,0,0.5,0.225,0.5,0.5  V26.5z M16.979,4.765c0.156,0.05,0.326,0.023,0.458-0.074l0.907-0.681c0.022-0.015,0.084-0.013,0.105,0l0.907,0.681  c0.133,0.098,0.301,0.123,0.459,0.074l0.851-0.278c-0.012,0.046-0.029,0.101-0.055,0.164l-0.801,2.08h-2.827l-0.804-2.086  c-0.026-0.064-0.043-0.119-0.055-0.165L16.979,4.765z M14.115,10.772l2.566-3.042h3.433l2.565,3.042  c0.688,0.817,1.116,1.835,1.116,2.657c0,1.969-1.602,3.57-3.57,3.57h-0.004c-0.456-0.604-1.174-1-1.987-1H14.11  c-0.7-0.672-1.111-1.595-1.111-2.572C12.999,12.606,13.427,11.59,14.115,10.772z M28.726,17.732l-7.84,7.058  C20.158,25.446,18.715,26,17.734,26h-10v-6.293l2.146-2.146C10.18,17.262,10.812,17,11.234,17h7c0.827,0,1.5,0.673,1.5,1.5  s-0.673,1.5-1.5,1.5H13c-0.276,0-0.5,0.224-0.5,0.5S12.724,21,13,21h5.234h0.5c0.641,0,1.568-0.266,2.112-0.605l6.862-4.29  c0.696-0.223,1.291,0.3,1.291,0.943C29,17.313,28.896,17.563,28.726,17.732z"/><path d="M17.862,12.234l0.727,0.266c0.139,0.051,0.25,0.152,0.313,0.285c0.062,0.134,0.069,0.283,0.018,0.422  c-0.08,0.218-0.288,0.364-0.52,0.364c-0.001,0-0.001,0-0.002,0c-0.158,0-0.306-0.061-0.415-0.17  c-0.056-0.057-0.098-0.117-0.124-0.181c-0.106-0.256-0.401-0.373-0.654-0.27c-0.255,0.106-0.375,0.399-0.269,0.654  c0.077,0.184,0.189,0.352,0.337,0.501c0.177,0.178,0.392,0.301,0.623,0.378v0.413c0,0.276,0.224,0.5,0.5,0.5s0.5-0.224,0.5-0.5  v-0.412c0.437-0.148,0.799-0.485,0.963-0.936c0.143-0.391,0.124-0.813-0.052-1.188c-0.175-0.375-0.486-0.659-0.875-0.802  l-0.728-0.267c-0.138-0.05-0.249-0.15-0.311-0.284c-0.063-0.133-0.069-0.282-0.018-0.422c0.08-0.218,0.288-0.364,0.52-0.364  c0.128,0.028,0.307,0.061,0.417,0.17c0.055,0.056,0.096,0.116,0.126,0.186c0.109,0.253,0.403,0.371,0.657,0.263  c0.254-0.109,0.371-0.403,0.262-0.657c-0.079-0.184-0.191-0.351-0.336-0.496c-0.178-0.178-0.393-0.302-0.624-0.378V8.897  c0-0.276-0.224-0.5-0.5-0.5s-0.5,0.224-0.5,0.5V9.33c-0.424,0.155-0.799,0.473-0.961,0.915c-0.143,0.391-0.124,0.813,0.051,1.188  C17.162,11.81,17.474,12.094,17.862,12.234z"/><text x="0" y="47" fill="#000000" font-size="5px" font-weight="bold" font-family="'Helvetica Neue', Helvetica, Arial-Unicode, Arial, Sans-serif">Created by David Khai</text><text x="0" y="52" fill="#000000" font-size="5px" font-weight="bold" font-family="'Helvetica Neue', Helvetica, Arial-Unicode, Arial, Sans-serif">from the Noun Project</text></svg>