<svg id="visual" viewBox="0 0 900 450" width="900" height="450" xmlns="http://www.w3.org/2000/svg" xmlns:xlink="http://www.w3.org/1999/xlink" version="1.1"><path d="M818 450L821 443.8C824 437.7 830 425.3 840.5 412.8C851 400.3 866 387.7 864.5 375.2C863 362.7 845 350.3 843.5 337.8C842 325.3 857 312.7 858.5 300C860 287.3 848 274.7 846.5 262.2C845 249.7 854 237.3 854 224.8C854 212.3 845 199.7 840.5 187.2C836 174.7 836 162.3 834.5 150C833 137.7 830 125.3 834.5 112.8C839 100.3 851 87.7 855.5 75.2C860 62.7 857 50.3 851 37.8C845 25.3 836 12.7 831.5 6.3L827 0L900 0L900 6.3C900 12.7 900 25.3 900 37.8C900 50.3 900 62.7 900 75.2C900 87.7 900 100.3 900 112.8C900 125.3 900 137.7 900 150C900 162.3 900 174.7 900 187.2C900 199.7 900 212.3 900 224.8C900 237.3 900 249.7 900 262.2C900 274.7 900 287.3 900 300C900 312.7 900 325.3 900 337.8C900 350.3 900 362.7 900 375.2C900 387.7 900 400.3 900 412.8C900 425.3 900 437.7 900 443.8L900 450Z" fill="#875e00"></path><path d="M746 450L731 443.8C716 437.7 686 425.3 695 412.8C704 400.3 752 387.7 771.5 375.2C791 362.7 782 350.3 765.5 337.8C749 325.3 725 312.7 728 300C731 287.3 761 274.7 774.5 262.2C788 249.7 785 237.3 773 224.8C761 212.3 740 199.7 744.5 187.2C749 174.7 779 162.3 776 150C773 137.7 737 125.3 723.5 112.8C710 100.3 719 87.7 726.5 75.2C734 62.7 740 50.3 747.5 37.8C755 25.3 764 12.7 768.5 6.3L773 0L828 0L832.5 6.3C837 12.7 846 25.3 852 37.8C858 50.3 861 62.7 856.5 75.2C852 87.7 840 100.3 835.5 112.8C831 125.3 834 137.7 835.5 150C837 162.3 837 174.7 841.5 187.2C846 199.7 855 212.3 855 224.8C855 237.3 846 249.7 847.5 262.2C849 274.7 861 287.3 859.5 300C858 312.7 843 325.3 844.5 337.8C846 350.3 864 362.7 865.5 375.2C867 387.7 852 400.3 841.5 412.8C831 425.3 825 437.7 822 443.8L819 450Z" fill="#926800"></path><path d="M719 450L705.5 443.8C692 437.7 665 425.3 671 412.8C677 400.3 716 387.7 732.5 375.2C749 362.7 743 350.3 723.5 337.8C704 325.3 671 312.7 675.5 300C680 287.3 722 274.7 737 262.2C752 249.7 740 237.3 725 224.8C710 212.3 692 199.7 699.5 187.2C707 174.7 740 162.3 740 150C740 137.7 707 125.3 693.5 112.8C680 100.3 686 87.7 696.5 75.2C707 62.7 722 50.3 729.5 37.8C737 25.3 737 12.7 737 6.3L737 0L774 0L769.5 6.3C765 12.7 756 25.3 748.5 37.8C741 50.3 735 62.7 727.5 75.2C720 87.7 711 100.3 724.5 112.8C738 125.3 774 137.7 777 150C780 162.3 750 174.7 745.5 187.2C741 199.7 762 212.3 774 224.8C786 237.3 789 249.7 775.5 262.2C762 274.7 732 287.3 729 300C726 312.7 750 325.3 766.5 337.8C783 350.3 792 362.7 772.5 375.2C753 387.7 705 400.3 696 412.8C687 425.3 717 437.7 732 443.8L747 450Z" fill="#9d7200"></path><path d="M584 450L587 443.8C590 437.7 596 425.3 587 412.8C578 400.3 554 387.7 558.5 375.2C563 362.7 596 350.3 579.5 337.8C563 325.3 497 312.7 473 300C449 287.3 467 274.7 473 262.2C479 249.7 473 237.3 486.5 224.8C500 212.3 533 199.7 545 187.2C557 174.7 548 162.3 536 150C524 137.7 509 125.3 530 112.8C551 100.3 608 87.7 626 75.2C644 62.7 623 50.3 603.5 37.8C584 25.3 566 12.7 557 6.3L548 0L738 0L738 6.3C738 12.7 738 25.3 730.5 37.8C723 50.3 708 62.7 697.5 75.2C687 87.7 681 100.3 694.5 112.8C708 125.3 741 137.7 741 150C741 162.3 708 174.7 700.5 187.2C693 199.7 711 212.3 726 224.8C741 237.3 753 249.7 738 262.2C723 274.7 681 287.3 676.5 300C672 312.7 705 325.3 724.5 337.8C744 350.3 750 362.7 733.5 375.2C717 387.7 678 400.3 672 412.8C666 425.3 693 437.7 706.5 443.8L720 450Z" fill="#a97d00"></path><path d="M341 450L344 443.8C347 437.7 353 425.3 366.5 412.8C380 400.3 401 387.7 420.5 375.2C440 362.7 458 350.3 446 337.8C434 325.3 392 312.7 366.5 300C341 287.3 332 274.7 341 262.2C350 249.7 377 237.3 362 224.8C347 212.3 290 199.7 258.5 187.2C227 174.7 221 162.3 257 150C293 137.7 371 125.3 393.5 112.8C416 100.3 383 87.7 393.5 75.2C404 62.7 458 50.3 467 37.8C476 25.3 440 12.7 422 6.3L404 0L549 0L558 6.3C567 12.7 585 25.3 604.5 37.8C624 50.3 645 62.7 627 75.2C609 87.7 552 100.3 531 112.8C510 125.3 525 137.7 537 150C549 162.3 558 174.7 546 187.2C534 199.7 501 212.3 487.5 224.8C474 237.3 480 249.7 474 262.2C468 274.7 450 287.3 474 300C498 312.7 564 325.3 580.5 337.8C597 350.3 564 362.7 559.5 375.2C555 387.7 579 400.3 588 412.8C597 425.3 591 437.7 588 443.8L585 450Z" fill="#b48700"></path><path d="M287 450L297.5 443.8C308 437.7 329 425.3 348.5 412.8C368 400.3 386 387.7 396.5 375.2C407 362.7 410 350.3 393.5 337.8C377 325.3 341 312.7 320 300C299 287.3 293 274.7 302 262.2C311 249.7 335 237.3 315.5 224.8C296 212.3 233 199.7 204.5 187.2C176 174.7 182 162.3 224 150C266 137.7 344 125.3 363.5 112.8C383 100.3 344 87.7 348.5 75.2C353 62.7 401 50.3 408.5 37.8C416 25.3 383 12.7 366.5 6.3L350 0L405 0L423 6.3C441 12.7 477 25.3 468 37.8C459 50.3 405 62.7 394.5 75.2C384 87.7 417 100.3 394.5 112.8C372 125.3 294 137.7 258 150C222 162.3 228 174.7 259.5 187.2C291 199.7 348 212.3 363 224.8C378 237.3 351 249.7 342 262.2C333 274.7 342 287.3 367.5 300C393 312.7 435 325.3 447 337.8C459 350.3 441 362.7 421.5 375.2C402 387.7 381 400.3 367.5 412.8C354 425.3 348 437.7 345 443.8L342 450Z" fill="#bf9200"></path><path d="M206 450L216.5 443.8C227 437.7 248 425.3 257 412.8C266 400.3 263 387.7 272 375.2C281 362.7 302 350.3 297.5 337.8C293 325.3 263 312.7 251 300C239 287.3 245 274.7 246.5 262.2C248 249.7 245 237.3 228.5 224.8C212 212.3 182 199.7 168.5 187.2C155 174.7 158 162.3 182 150C206 137.7 251 125.3 258.5 112.8C266 100.3 236 87.7 246.5 75.2C257 62.7 308 50.3 317 37.8C326 25.3 293 12.7 276.5 6.3L260 0L351 0L367.5 6.3C384 12.7 417 25.3 409.5 37.8C402 50.3 354 62.7 349.5 75.2C345 87.7 384 100.3 364.5 112.8C345 125.3 267 137.7 225 150C183 162.3 177 174.7 205.5 187.2C234 199.7 297 212.3 316.5 224.8C336 237.3 312 249.7 303 262.2C294 274.7 300 287.3 321 300C342 312.7 378 325.3 394.5 337.8C411 350.3 408 362.7 397.5 375.2C387 387.7 369 400.3 349.5 412.8C330 425.3 309 437.7 298.5 443.8L288 450Z" fill="#ca9e00"></path><path d="M188 450L201.5 443.8C215 437.7 242 425.3 254 412.8C266 400.3 263 387.7 261.5 375.2C260 362.7 260 350.3 252.5 337.8C245 325.3 230 312.7 219.5 300C209 287.3 203 274.7 197 262.2C191 249.7 185 237.3 173 224.8C161 212.3 143 199.7 138.5 187.2C134 174.7 143 162.3 171.5 150C200 137.7 248 125.3 257 112.8C266 100.3 236 87.7 236 75.2C236 62.7 266 50.3 267.5 37.8C269 25.3 242 12.7 228.5 6.3L215 0L261 0L277.5 6.3C294 12.7 327 25.3 318 37.8C309 50.3 258 62.7 247.5 75.2C237 87.7 267 100.3 259.5 112.8C252 125.3 207 137.7 183 150C159 162.3 156 174.7 169.5 187.2C183 199.7 213 212.3 229.5 224.8C246 237.3 249 249.7 247.5 262.2C246 274.7 240 287.3 252 300C264 312.7 294 325.3 298.5 337.8C303 350.3 282 362.7 273 375.2C264 387.7 267 400.3 258 412.8C249 425.3 228 437.7 217.5 443.8L207 450Z" fill="#d4a900"></path><path d="M134 450L143 443.8C152 437.7 170 425.3 185 412.8C200 400.3 212 387.7 210.5 375.2C209 362.7 194 350.3 177.5 337.8C161 325.3 143 312.7 144.5 300C146 287.3 167 274.7 165.5 262.2C164 249.7 140 237.3 128 224.8C116 212.3 116 199.7 120.5 187.2C125 174.7 134 162.3 153.5 150C173 137.7 203 125.3 206 112.8C209 100.3 185 87.7 180.5 75.2C176 62.7 191 50.3 197 37.8C203 25.3 200 12.7 198.5 6.3L197 0L216 0L229.5 6.3C243 12.7 270 25.3 268.5 37.8C267 50.3 237 62.7 237 75.2C237 87.7 267 100.3 258 112.8C249 125.3 201 137.7 172.5 150C144 162.3 135 174.7 139.5 187.2C144 199.7 162 212.3 174 224.8C186 237.3 192 249.7 198 262.2C204 274.7 210 287.3 220.5 300C231 312.7 246 325.3 253.5 337.8C261 350.3 261 362.7 262.5 375.2C264 387.7 267 400.3 255 412.8C243 425.3 216 437.7 202.5 443.8L189 450Z" fill="#dfb400"></path><path d="M35 450L47 443.8C59 437.7 83 425.3 104 412.8C125 400.3 143 387.7 140 375.2C137 362.7 113 350.3 104 337.8C95 325.3 101 312.7 113 300C125 287.3 143 274.7 141.5 262.2C140 249.7 119 237.3 102.5 224.8C86 212.3 74 199.7 71 187.2C68 174.7 74 162.3 93.5 150C113 137.7 146 125.3 153.5 112.8C161 100.3 143 87.7 135.5 75.2C128 62.7 131 50.3 123.5 37.8C116 25.3 98 12.7 89 6.3L80 0L198 0L199.5 6.3C201 12.7 204 25.3 198 37.8C192 50.3 177 62.7 181.5 75.2C186 87.7 210 100.3 207 112.8C204 125.3 174 137.7 154.5 150C135 162.3 126 174.7 121.5 187.2C117 199.7 117 212.3 129 224.8C141 237.3 165 249.7 166.5 262.2C168 274.7 147 287.3 145.5 300C144 312.7 162 325.3 178.5 337.8C195 350.3 210 362.7 211.5 375.2C213 387.7 201 400.3 186 412.8C171 425.3 153 437.7 144 443.8L135 450Z" fill="#eac000"></path><path d="M8 450L9.5 443.8C11 437.7 14 425.3 27.5 412.8C41 400.3 65 387.7 71 375.2C77 362.7 65 350.3 56 337.8C47 325.3 41 312.7 45.5 300C50 287.3 65 274.7 66.5 262.2C68 249.7 56 237.3 50 224.8C44 212.3 44 199.7 41 187.2C38 174.7 32 162.3 38 150C44 137.7 62 125.3 72.5 112.8C83 100.3 86 87.7 81.5 75.2C77 62.7 65 50.3 59 37.8C53 25.3 53 12.7 53 6.3L53 0L81 0L90 6.3C99 12.7 117 25.3 124.5 37.8C132 50.3 129 62.7 136.5 75.2C144 87.7 162 100.3 154.5 112.8C147 125.3 114 137.7 94.5 150C75 162.3 69 174.7 72 187.2C75 199.7 87 212.3 103.5 224.8C120 237.3 141 249.7 142.5 262.2C144 274.7 126 287.3 114 300C102 312.7 96 325.3 105 337.8C114 350.3 138 362.7 141 375.2C144 387.7 126 400.3 105 412.8C84 425.3 60 437.7 48 443.8L36 450Z" fill="#f5cc00"></path><path d="M0 450L0 443.8C0 437.7 0 425.3 0 412.8C0 400.3 0 387.7 0 375.2C0 362.7 0 350.3 0 337.8C0 325.3 0 312.7 0 300C0 287.3 0 274.7 0 262.2C0 249.7 0 237.3 0 224.8C0 212.3 0 199.7 0 187.2C0 174.7 0 162.3 0 150C0 137.7 0 125.3 0 112.8C0 100.3 0 87.7 0 75.2C0 62.7 0 50.3 0 37.8C0 25.3 0 12.7 0 6.3L0 0L54 0L54 6.3C54 12.7 54 25.3 60 37.8C66 50.3 78 62.7 82.5 75.2C87 87.7 84 100.3 73.5 112.8C63 125.3 45 137.7 39 150C33 162.3 39 174.7 42 187.2C45 199.7 45 212.3 51 224.8C57 237.3 69 249.7 67.5 262.2C66 274.7 51 287.3 46.5 300C42 312.7 48 325.3 57 337.8C66 350.3 78 362.7 72 375.2C66 387.7 42 400.3 28.5 412.8C15 425.3 12 437.7 10.5 443.8L9 450Z" fill="#ffd800"></path></svg>