<svg id="visual" viewBox="0 0 900 450" width="900" height="450" xmlns="http://www.w3.org/2000/svg" xmlns:xlink="http://www.w3.org/1999/xlink" version="1.1"><path d="M0 37L39 37L39 24L78 24L78 10L117 10L117 28L157 28L157 0L196 0L196 24L235 24L235 19L274 19L274 33L313 33L313 6L352 6L352 15L391 15L391 28L430 28L430 0L470 0L470 33L509 33L509 15L548 15L548 19L587 19L587 28L626 28L626 28L665 28L665 10L704 10L704 28L743 28L743 28L783 28L783 15L822 15L822 10L861 10L861 33L900 33L900 33L900 0L900 0L861 0L861 0L822 0L822 0L783 0L783 0L743 0L743 0L704 0L704 0L665 0L665 0L626 0L626 0L587 0L587 0L548 0L548 0L509 0L509 0L470 0L470 0L430 0L430 0L391 0L391 0L352 0L352 0L313 0L313 0L274 0L274 0L235 0L235 0L196 0L196 0L157 0L157 0L117 0L117 0L78 0L78 0L39 0L39 0L0 0Z" fill="#4da8ff"></path><path d="M0 96L39 96L39 73L78 73L78 60L117 60L117 114L157 114L157 10L196 10L196 82L235 82L235 78L274 78L274 109L313 109L313 51L352 51L352 46L391 46L391 37L430 37L430 136L470 136L470 118L509 118L509 15L548 15L548 55L587 55L587 96L626 96L626 114L665 114L665 78L704 78L704 87L743 87L743 105L783 105L783 100L822 100L822 60L861 60L861 64L900 64L900 37L900 31L900 31L861 31L861 8L822 8L822 13L783 13L783 26L743 26L743 26L704 26L704 8L665 8L665 26L626 26L626 26L587 26L587 17L548 17L548 13L509 13L509 31L470 31L470 0L430 0L430 26L391 26L391 13L352 13L352 4L313 4L313 31L274 31L274 17L235 17L235 22L196 22L196 0L157 0L157 26L117 26L117 8L78 8L78 22L39 22L39 35L0 35Z" fill="#4199f3"></path><path d="M0 109L39 109L39 100L78 100L78 69L117 69L117 136L157 136L157 24L196 24L196 82L235 82L235 100L274 100L274 145L313 145L313 51L352 51L352 78L391 78L391 51L430 51L430 136L470 136L470 159L509 159L509 51L548 51L548 73L587 73L587 118L626 118L626 136L665 136L665 123L704 123L704 105L743 105L743 123L783 123L783 114L822 114L822 73L861 73L861 73L900 73L900 37L900 35L900 62L861 62L861 58L822 58L822 98L783 98L783 103L743 103L743 85L704 85L704 76L665 76L665 112L626 112L626 94L587 94L587 53L548 53L548 13L509 13L509 116L470 116L470 134L430 134L430 35L391 35L391 44L352 44L352 49L313 49L313 107L274 107L274 76L235 76L235 80L196 80L196 8L157 8L157 112L117 112L117 58L78 58L78 71L39 71L39 94L0 94Z" fill="#368ae7"></path><path d="M0 141L39 141L39 114L78 114L78 105L117 105L117 159L157 159L157 28L196 28L196 127L235 127L235 136L274 136L274 181L313 181L313 105L352 105L352 100L391 100L391 55L430 55L430 150L470 150L470 181L509 181L509 60L548 60L548 91L587 91L587 159L626 159L626 168L665 168L665 154L704 154L704 136L743 136L743 168L783 168L783 132L822 132L822 100L861 100L861 78L900 78L900 51L900 35L900 71L861 71L861 71L822 71L822 112L783 112L783 121L743 121L743 103L704 103L704 121L665 121L665 134L626 134L626 116L587 116L587 71L548 71L548 49L509 49L509 157L470 157L470 134L430 134L430 49L391 49L391 76L352 76L352 49L313 49L313 143L274 143L274 98L235 98L235 80L196 80L196 22L157 22L157 134L117 134L117 67L78 67L78 98L39 98L39 107L0 107Z" fill="#2d7bdb"></path><path d="M0 145L39 145L39 123L78 123L78 118L117 118L117 186L157 186L157 51L196 51L196 141L235 141L235 150L274 150L274 217L313 217L313 109L352 109L352 123L391 123L391 64L430 64L430 159L470 159L470 186L509 186L509 73L548 73L548 109L587 109L587 177L626 177L626 199L665 199L665 168L704 168L704 159L743 159L743 177L783 177L783 163L822 163L822 114L861 114L861 109L900 109L900 82L900 49L900 76L861 76L861 98L822 98L822 130L783 130L783 166L743 166L743 134L704 134L704 152L665 152L665 166L626 166L626 157L587 157L587 89L548 89L548 58L509 58L509 179L470 179L470 148L430 148L430 53L391 53L391 98L352 98L352 103L313 103L313 179L274 179L274 134L235 134L235 125L196 125L196 26L157 26L157 157L117 157L117 103L78 103L78 112L39 112L39 139L0 139Z" fill="#246dce"></path><path d="M0 177L39 177L39 150L78 150L78 118L117 118L117 213L157 213L157 91L196 91L196 168L235 168L235 181L274 181L274 226L313 226L313 109L352 109L352 163L391 163L391 96L430 96L430 168L470 168L470 195L509 195L509 109L548 109L548 150L587 150L587 177L626 177L626 217L665 217L665 168L704 168L704 195L743 195L743 181L783 181L783 186L822 186L822 123L861 123L861 114L900 114L900 105L900 80L900 107L861 107L861 112L822 112L822 161L783 161L783 175L743 175L743 157L704 157L704 166L665 166L665 197L626 197L626 175L587 175L587 107L548 107L548 71L509 71L509 184L470 184L470 157L430 157L430 62L391 62L391 121L352 121L352 107L313 107L313 215L274 215L274 148L235 148L235 139L196 139L196 49L157 49L157 184L117 184L117 116L78 116L78 121L39 121L39 143L0 143Z" fill="#1c5ec2"></path><path d="M0 226L39 226L39 150L78 150L78 154L117 154L117 276L157 276L157 91L196 91L196 181L235 181L235 199L274 199L274 235L313 235L313 145L352 145L352 177L391 177L391 132L430 132L430 240L470 240L470 231L509 231L509 150L548 150L548 154L587 154L587 231L626 231L626 267L665 267L665 199L704 199L704 253L743 253L743 195L783 195L783 231L822 231L822 172L861 172L861 163L900 163L900 145L900 103L900 112L861 112L861 121L822 121L822 184L783 184L783 179L743 179L743 193L704 193L704 166L665 166L665 215L626 215L626 175L587 175L587 148L548 148L548 107L509 107L509 193L470 193L470 166L430 166L430 94L391 94L391 161L352 161L352 107L313 107L313 224L274 224L274 179L235 179L235 166L196 166L196 89L157 89L157 211L117 211L117 116L78 116L78 148L39 148L39 175L0 175Z" fill="#1650b4"></path><path d="M0 321L39 321L39 235L78 235L78 181L117 181L117 348L157 348L157 249L196 249L196 312L235 312L235 217L274 217L274 361L313 361L313 271L352 271L352 280L391 280L391 163L430 163L430 384L470 384L470 339L509 339L509 357L548 357L548 325L587 325L587 258L626 258L626 303L665 303L665 213L704 213L704 316L743 316L743 262L783 262L783 244L822 244L822 280L861 280L861 172L900 172L900 150L900 143L900 161L861 161L861 170L822 170L822 229L783 229L783 193L743 193L743 251L704 251L704 197L665 197L665 265L626 265L626 229L587 229L587 152L548 152L548 148L509 148L509 229L470 229L470 238L430 238L430 130L391 130L391 175L352 175L352 143L313 143L313 233L274 233L274 197L235 197L235 179L196 179L196 89L157 89L157 274L117 274L117 152L78 152L78 148L39 148L39 224L0 224Z" fill="#1241a7"></path><path d="M0 330L39 330L39 289L78 289L78 222L117 222L117 352L157 352L157 303L196 303L196 357L235 357L235 249L274 249L274 402L313 402L313 298L352 298L352 316L391 316L391 217L430 217L430 402L470 402L470 357L509 357L509 388L548 388L548 352L587 352L587 307L626 307L626 325L665 325L665 231L704 231L704 348L743 348L743 307L783 307L783 294L822 294L822 325L861 325L861 213L900 213L900 204L900 148L900 170L861 170L861 278L822 278L822 242L783 242L783 260L743 260L743 314L704 314L704 211L665 211L665 301L626 301L626 256L587 256L587 323L548 323L548 355L509 355L509 337L470 337L470 382L430 382L430 161L391 161L391 278L352 278L352 269L313 269L313 359L274 359L274 215L235 215L235 310L196 310L196 247L157 247L157 346L117 346L117 179L78 179L78 233L39 233L39 319L0 319Z" fill="#0f3399"></path><path d="M0 375L39 375L39 303L78 303L78 244L117 244L117 352L157 352L157 330L196 330L196 366L235 366L235 276L274 276L274 429L313 429L313 339L352 339L352 339L391 339L391 240L430 240L430 438L470 438L470 406L509 406L509 433L548 433L548 384L587 384L587 334L626 334L626 325L665 325L665 276L704 276L704 379L743 379L743 339L783 339L783 307L822 307L822 379L861 379L861 271L900 271L900 258L900 202L900 211L861 211L861 323L822 323L822 292L783 292L783 305L743 305L743 346L704 346L704 229L665 229L665 323L626 323L626 305L587 305L587 350L548 350L548 386L509 386L509 355L470 355L470 400L430 400L430 215L391 215L391 314L352 314L352 296L313 296L313 400L274 400L274 247L235 247L235 355L196 355L196 301L157 301L157 350L117 350L117 220L78 220L78 287L39 287L39 328L0 328Z" fill="#0d248b"></path><path d="M0 415L39 415L39 361L78 361L78 271L117 271L117 379L157 379L157 384L196 384L196 442L235 442L235 276L274 276L274 447L313 447L313 415L352 415L352 379L391 379L391 280L430 280L430 447L470 447L470 442L509 442L509 451L548 451L548 402L587 402L587 352L626 352L626 375L665 375L665 321L704 321L704 411L743 411L743 393L783 393L783 334L822 334L822 429L861 429L861 276L900 276L900 267L900 256L900 269L861 269L861 377L822 377L822 305L783 305L783 337L743 337L743 377L704 377L704 274L665 274L665 323L626 323L626 332L587 332L587 382L548 382L548 431L509 431L509 404L470 404L470 436L430 436L430 238L391 238L391 337L352 337L352 337L313 337L313 427L274 427L274 274L235 274L235 364L196 364L196 328L157 328L157 350L117 350L117 242L78 242L78 301L39 301L39 373L0 373Z" fill="#0b147d"></path><path d="M0 451L39 451L39 451L78 451L78 451L117 451L117 451L157 451L157 451L196 451L196 451L235 451L235 451L274 451L274 451L313 451L313 451L352 451L352 451L391 451L391 451L430 451L430 451L470 451L470 451L509 451L509 451L548 451L548 451L587 451L587 451L626 451L626 451L665 451L665 451L704 451L704 451L743 451L743 451L783 451L783 451L822 451L822 451L861 451L861 451L900 451L900 451L900 265L900 274L861 274L861 427L822 427L822 332L783 332L783 391L743 391L743 409L704 409L704 319L665 319L665 373L626 373L626 350L587 350L587 400L548 400L548 449L509 449L509 440L470 440L470 445L430 445L430 278L391 278L391 377L352 377L352 413L313 413L313 445L274 445L274 274L235 274L235 440L196 440L196 382L157 382L157 377L117 377L117 269L78 269L78 359L39 359L39 413L0 413Z" fill="#0a006e"></path></svg>