<svg id="visual" viewBox="0 0 900 450" width="900" height="450" xmlns="http://www.w3.org/2000/svg" xmlns:xlink="http://www.w3.org/1999/xlink" version="1.1"><rect x="0" y="0" width="900" height="450" fill="#1c0000"></rect><path d="M0 308L129 269L257 323L386 334L514 331L643 336L771 275L900 331L900 451L771 451L643 451L514 451L386 451L257 451L129 451L0 451Z" fill="#f5730a"></path><path d="M0 298L129 343L257 338L386 352L514 328L643 307L771 326L900 356L900 451L771 451L643 451L514 451L386 451L257 451L129 451L0 451Z" fill="#da5b09"></path><path d="M0 339L129 366L257 346L386 333L514 359L643 342L771 346L900 357L900 451L771 451L643 451L514 451L386 451L257 451L129 451L0 451Z" fill="#be4407"></path><path d="M0 404L129 365L257 397L386 395L514 380L643 363L771 384L900 375L900 451L771 451L643 451L514 451L386 451L257 451L129 451L0 451Z" fill="#a32d04"></path><path d="M0 398L129 414L257 422L386 421L514 405L643 394L771 410L900 414L900 451L771 451L643 451L514 451L386 451L257 451L129 451L0 451Z" fill="#871400"></path></svg>