<svg id="visual" viewBox="0 0 900 450" width="900" height="450" xmlns="http://www.w3.org/2000/svg" xmlns:xlink="http://www.w3.org/1999/xlink" version="1.1"><rect x="0" y="0" width="900" height="450" fill="#160017"></rect><defs><linearGradient id="grad1_0" x1="50%" y1="0%" x2="100%" y2="100%"><stop offset="10%" stop-color="#ffc100" stop-opacity="1"></stop><stop offset="90%" stop-color="#ffc100" stop-opacity="1"></stop></linearGradient></defs><defs><linearGradient id="grad1_1" x1="50%" y1="0%" x2="100%" y2="100%"><stop offset="10%" stop-color="#ffc100" stop-opacity="1"></stop><stop offset="90%" stop-color="#f69427" stop-opacity="1"></stop></linearGradient></defs><defs><linearGradient id="grad1_2" x1="50%" y1="0%" x2="100%" y2="100%"><stop offset="10%" stop-color="#e06c3a" stop-opacity="1"></stop><stop offset="90%" stop-color="#f69427" stop-opacity="1"></stop></linearGradient></defs><defs><linearGradient id="grad1_3" x1="50%" y1="0%" x2="100%" y2="100%"><stop offset="10%" stop-color="#e06c3a" stop-opacity="1"></stop><stop offset="90%" stop-color="#be4b44" stop-opacity="1"></stop></linearGradient></defs><defs><linearGradient id="grad1_4" x1="50%" y1="0%" x2="100%" y2="100%"><stop offset="10%" stop-color="#943345" stop-opacity="1"></stop><stop offset="90%" stop-color="#be4b44" stop-opacity="1"></stop></linearGradient></defs><defs><linearGradient id="grad1_5" x1="50%" y1="0%" x2="100%" y2="100%"><stop offset="10%" stop-color="#943345" stop-opacity="1"></stop><stop offset="90%" stop-color="#67223e" stop-opacity="1"></stop></linearGradient></defs><defs><linearGradient id="grad1_6" x1="50%" y1="0%" x2="100%" y2="100%"><stop offset="10%" stop-color="#3a152e" stop-opacity="1"></stop><stop offset="90%" stop-color="#67223e" stop-opacity="1"></stop></linearGradient></defs><defs><linearGradient id="grad1_7" x1="50%" y1="0%" x2="100%" y2="100%"><stop offset="10%" stop-color="#3a152e" stop-opacity="1"></stop><stop offset="90%" stop-color="#160017" stop-opacity="1"></stop></linearGradient></defs><defs><linearGradient id="grad2_0" x1="0%" y1="0%" x2="50%" y2="100%"><stop offset="10%" stop-color="#ffc100" stop-opacity="1"></stop><stop offset="90%" stop-color="#ffc100" stop-opacity="1"></stop></linearGradient></defs><defs><linearGradient id="grad2_1" x1="0%" y1="0%" x2="50%" y2="100%"><stop offset="10%" stop-color="#f69427" stop-opacity="1"></stop><stop offset="90%" stop-color="#ffc100" stop-opacity="1"></stop></linearGradient></defs><defs><linearGradient id="grad2_2" x1="0%" y1="0%" x2="50%" y2="100%"><stop offset="10%" stop-color="#f69427" stop-opacity="1"></stop><stop offset="90%" stop-color="#e06c3a" stop-opacity="1"></stop></linearGradient></defs><defs><linearGradient id="grad2_3" x1="0%" y1="0%" x2="50%" y2="100%"><stop offset="10%" stop-color="#be4b44" stop-opacity="1"></stop><stop offset="90%" stop-color="#e06c3a" stop-opacity="1"></stop></linearGradient></defs><defs><linearGradient id="grad2_4" x1="0%" y1="0%" x2="50%" y2="100%"><stop offset="10%" stop-color="#be4b44" stop-opacity="1"></stop><stop offset="90%" stop-color="#943345" stop-opacity="1"></stop></linearGradient></defs><defs><linearGradient id="grad2_5" x1="0%" y1="0%" x2="50%" y2="100%"><stop offset="10%" stop-color="#67223e" stop-opacity="1"></stop><stop offset="90%" stop-color="#943345" stop-opacity="1"></stop></linearGradient></defs><defs><linearGradient id="grad2_6" x1="0%" y1="0%" x2="50%" y2="100%"><stop offset="10%" stop-color="#67223e" stop-opacity="1"></stop><stop offset="90%" stop-color="#3a152e" stop-opacity="1"></stop></linearGradient></defs><defs><linearGradient id="grad2_7" x1="0%" y1="0%" x2="50%" y2="100%"><stop offset="10%" stop-color="#160017" stop-opacity="1"></stop><stop offset="90%" stop-color="#3a152e" stop-opacity="1"></stop></linearGradient></defs><g transform="translate(900, 0)"><path d="M0 450C-62.6 411.1 -125.1 372.1 -196 339.5C-266.9 306.8 -346 280.5 -389.7 225C-433.4 169.5 -441.7 84.7 -450 0L0 0Z" fill="#260e23"></path><path d="M0 393.8C-54.8 359.7 -109.5 325.6 -171.5 297C-233.5 268.5 -302.7 245.5 -341 196.9C-379.2 148.3 -386.5 74.1 -393.7 0L0 0Z" fill="#501b37"></path><path d="M0 337.5C-46.9 308.3 -93.9 279.1 -147 254.6C-200.1 230.1 -259.5 210.4 -292.3 168.8C-325.1 127.1 -331.3 63.6 -337.5 0L0 0Z" fill="#7d2a43"></path><path d="M0 281.3C-39.1 256.9 -78.2 232.6 -122.5 212.2C-166.8 191.8 -216.2 175.3 -243.6 140.6C-270.9 105.9 -276.1 53 -281.2 0L0 0Z" fill="#aa3e46"></path><path d="M0 225C-31.3 205.5 -62.6 186.1 -98 169.7C-133.4 153.4 -173 140.3 -194.9 112.5C-216.7 84.7 -220.9 42.4 -225 0L0 0Z" fill="#d05b40"></path><path d="M0 168.8C-23.5 154.1 -46.9 139.5 -73.5 127.3C-100.1 115.1 -129.7 105.2 -146.1 84.4C-162.5 63.6 -165.6 31.8 -168.7 0L0 0Z" fill="#ed7f31"></path><path d="M0 112.5C-15.6 102.8 -31.3 93 -49 84.9C-66.7 76.7 -86.5 70.1 -97.4 56.3C-108.4 42.4 -110.4 21.2 -112.5 0L0 0Z" fill="#fcaa18"></path><path d="M0 56.3C-7.8 51.4 -15.6 46.5 -24.5 42.4C-33.4 38.4 -43.2 35.1 -48.7 28.1C-54.2 21.2 -55.2 10.6 -56.2 0L0 0Z" fill="#ffc100"></path></g><g transform="translate(0, 450)"><path d="M0 -450C96.2 -448.3 192.3 -446.6 225 -389.7C257.7 -332.8 226.8 -220.7 253.7 -146.5C280.7 -72.3 365.3 -36.2 450 0L0 0Z" fill="#260e23"></path><path d="M0 -393.7C84.1 -392.3 168.3 -390.8 196.9 -341C225.5 -291.2 198.5 -193.1 222 -128.2C245.6 -63.3 319.7 -31.7 393.8 0L0 0Z" fill="#501b37"></path><path d="M0 -337.5C72.1 -336.2 144.3 -335 168.7 -292.3C193.2 -249.6 170.1 -165.5 190.3 -109.9C210.5 -54.3 274 -27.1 337.5 0L0 0Z" fill="#7d2a43"></path><path d="M0 -281.2C60.1 -280.2 120.2 -279.1 140.6 -243.6C161 -208 141.8 -137.9 158.6 -91.6C175.4 -45.2 228.3 -22.6 281.3 0L0 0Z" fill="#aa3e46"></path><path d="M0 -225C48.1 -224.2 96.2 -223.3 112.5 -194.9C128.8 -166.4 113.4 -110.3 126.9 -73.3C140.3 -36.2 182.7 -18.1 225 0L0 0Z" fill="#d05b40"></path><path d="M0 -168.7C36.1 -168.1 72.1 -167.5 84.4 -146.1C96.6 -124.8 85.1 -82.7 95.2 -54.9C105.2 -27.1 137 -13.6 168.8 0L0 0Z" fill="#ed7f31"></path><path d="M0 -112.5C24 -112.1 48.1 -111.7 56.2 -97.4C64.4 -83.2 56.7 -55.2 63.4 -36.6C70.2 -18.1 91.3 -9 112.5 0L0 0Z" fill="#fcaa18"></path><path d="M0 -56.2C12 -56 24 -55.8 28.1 -48.7C32.2 -41.6 28.4 -27.6 31.7 -18.3C35.1 -9 45.7 -4.5 56.3 0L0 0Z" fill="#ffc100"></path></g></svg>