<svg id="visual" viewBox="0 0 900 450" width="900" height="450" xmlns="http://www.w3.org/2000/svg" xmlns:xlink="http://www.w3.org/1999/xlink" version="1.1"><path d="M0 376L21.5 381.5C43 387 86 398 128.8 393.5C171.7 389 214.3 369 257.2 365.8C300 362.7 343 376.3 385.8 379.2C428.7 382 471.3 374 514.2 371.7C557 369.3 600 372.7 642.8 376.8C685.7 381 728.3 386 771.2 389.7C814 393.3 857 395.7 878.5 396.8L900 398L900 451L878.5 451C857 451 814 451 771.2 451C728.3 451 685.7 451 642.8 451C600 451 557 451 514.2 451C471.3 451 428.7 451 385.8 451C343 451 300 451 257.2 451C214.3 451 171.7 451 128.8 451C86 451 43 451 21.5 451L0 451Z" fill="#ffffff" stroke-linecap="round" stroke-linejoin="miter"></path></svg>