<svg id="visual" viewBox="0 0 900 450" width="900" height="450" xmlns="http://www.w3.org/2000/svg" xmlns:xlink="http://www.w3.org/1999/xlink" version="1.1"><path d="M0 55L113 55L225 55L338 51L450 51L563 55L675 55L788 55L900 51L900 0L788 0L675 0L563 0L450 0L338 0L225 0L113 0L0 0Z" fill="#006eff"></path><path d="M0 96L113 100L225 96L338 87L450 91L563 96L675 96L788 100L900 91L900 49L788 53L675 53L563 53L450 49L338 49L225 53L113 53L0 53Z" fill="#1963ed"></path><path d="M0 181L113 195L225 190L338 186L450 177L563 181L675 186L788 186L900 190L900 89L788 98L675 94L563 94L450 89L338 85L225 94L113 98L0 94Z" fill="#2358db"></path><path d="M0 204L113 217L225 217L338 213L450 204L563 204L675 208L788 208L900 213L900 188L788 184L675 184L563 179L450 175L338 184L225 188L113 193L0 179Z" fill="#274dc9"></path><path d="M0 222L113 235L225 235L338 231L450 222L563 222L675 226L788 226L900 231L900 211L788 206L675 206L563 202L450 202L338 211L225 215L113 215L0 202Z" fill="#2943b8"></path><path d="M0 240L113 253L225 253L338 249L450 240L563 240L675 244L788 244L900 249L900 229L788 224L675 224L563 220L450 220L338 229L225 233L113 233L0 220Z" fill="#2939a7"></path><path d="M0 330L113 330L225 330L338 325L450 325L563 325L675 330L788 334L900 330L900 247L788 242L675 242L563 238L450 238L338 247L225 251L113 251L0 238Z" fill="#272f97"></path><path d="M0 357L113 361L225 357L338 352L450 352L563 357L675 357L788 361L900 361L900 328L788 332L675 328L563 323L450 323L338 323L225 328L113 328L0 328Z" fill="#242587"></path><path d="M0 379L113 379L225 379L338 375L450 375L563 379L675 375L788 379L900 379L900 359L788 359L675 355L563 355L450 350L338 350L225 355L113 359L0 355Z" fill="#211c77"></path><path d="M0 402L113 402L225 402L338 397L450 397L563 402L675 397L788 402L900 402L900 377L788 377L675 373L563 377L450 373L338 373L225 377L113 377L0 377Z" fill="#1c1268"></path><path d="M0 433L113 433L225 433L338 433L450 433L563 433L675 433L788 433L900 433L900 400L788 400L675 395L563 400L450 395L338 395L225 400L113 400L0 400Z" fill="#170959"></path><path d="M0 451L113 451L225 451L338 451L450 451L563 451L675 451L788 451L900 451L900 431L788 431L675 431L563 431L450 431L338 431L225 431L113 431L0 431Z" fill="#12004b"></path></svg>