<svg id="visual" viewBox="0 0 900 450" width="900" height="450" xmlns="http://www.w3.org/2000/svg" xmlns:xlink="http://www.w3.org/1999/xlink" version="1.1"><rect x="0" y="0" width="900" height="450" fill="#001220"></rect><defs><linearGradient id="grad1_0" x1="50%" y1="100%" x2="100%" y2="0%"><stop offset="10%" stop-color="#fbae3c" stop-opacity="1"></stop><stop offset="90%" stop-color="#fbae3c" stop-opacity="1"></stop></linearGradient></defs><defs><linearGradient id="grad1_1" x1="50%" y1="100%" x2="100%" y2="0%"><stop offset="10%" stop-color="#fbae3c" stop-opacity="1"></stop><stop offset="90%" stop-color="#f48350" stop-opacity="1"></stop></linearGradient></defs><defs><linearGradient id="grad1_2" x1="50%" y1="100%" x2="100%" y2="0%"><stop offset="10%" stop-color="#d96162" stop-opacity="1"></stop><stop offset="90%" stop-color="#f48350" stop-opacity="1"></stop></linearGradient></defs><defs><linearGradient id="grad1_3" x1="50%" y1="100%" x2="100%" y2="0%"><stop offset="10%" stop-color="#d96162" stop-opacity="1"></stop><stop offset="90%" stop-color="#af4b6d" stop-opacity="1"></stop></linearGradient></defs><defs><linearGradient id="grad1_4" x1="50%" y1="100%" x2="100%" y2="0%"><stop offset="10%" stop-color="#7c3e6b" stop-opacity="1"></stop><stop offset="90%" stop-color="#af4b6d" stop-opacity="1"></stop></linearGradient></defs><defs><linearGradient id="grad1_5" x1="50%" y1="100%" x2="100%" y2="0%"><stop offset="10%" stop-color="#7c3e6b" stop-opacity="1"></stop><stop offset="90%" stop-color="#49335c" stop-opacity="1"></stop></linearGradient></defs><defs><linearGradient id="grad1_6" x1="50%" y1="100%" x2="100%" y2="0%"><stop offset="10%" stop-color="#1d2540" stop-opacity="1"></stop><stop offset="90%" stop-color="#49335c" stop-opacity="1"></stop></linearGradient></defs><defs><linearGradient id="grad1_7" x1="50%" y1="100%" x2="100%" y2="0%"><stop offset="10%" stop-color="#1d2540" stop-opacity="1"></stop><stop offset="90%" stop-color="#001220" stop-opacity="1"></stop></linearGradient></defs><defs><linearGradient id="grad2_0" x1="0%" y1="100%" x2="50%" y2="0%"><stop offset="10%" stop-color="#fbae3c" stop-opacity="1"></stop><stop offset="90%" stop-color="#fbae3c" stop-opacity="1"></stop></linearGradient></defs><defs><linearGradient id="grad2_1" x1="0%" y1="100%" x2="50%" y2="0%"><stop offset="10%" stop-color="#f48350" stop-opacity="1"></stop><stop offset="90%" stop-color="#fbae3c" stop-opacity="1"></stop></linearGradient></defs><defs><linearGradient id="grad2_2" x1="0%" y1="100%" x2="50%" y2="0%"><stop offset="10%" stop-color="#f48350" stop-opacity="1"></stop><stop offset="90%" stop-color="#d96162" stop-opacity="1"></stop></linearGradient></defs><defs><linearGradient id="grad2_3" x1="0%" y1="100%" x2="50%" y2="0%"><stop offset="10%" stop-color="#af4b6d" stop-opacity="1"></stop><stop offset="90%" stop-color="#d96162" stop-opacity="1"></stop></linearGradient></defs><defs><linearGradient id="grad2_4" x1="0%" y1="100%" x2="50%" y2="0%"><stop offset="10%" stop-color="#af4b6d" stop-opacity="1"></stop><stop offset="90%" stop-color="#7c3e6b" stop-opacity="1"></stop></linearGradient></defs><defs><linearGradient id="grad2_5" x1="0%" y1="100%" x2="50%" y2="0%"><stop offset="10%" stop-color="#49335c" stop-opacity="1"></stop><stop offset="90%" stop-color="#7c3e6b" stop-opacity="1"></stop></linearGradient></defs><defs><linearGradient id="grad2_6" x1="0%" y1="100%" x2="50%" y2="0%"><stop offset="10%" stop-color="#49335c" stop-opacity="1"></stop><stop offset="90%" stop-color="#1d2540" stop-opacity="1"></stop></linearGradient></defs><defs><linearGradient id="grad2_7" x1="0%" y1="100%" x2="50%" y2="0%"><stop offset="10%" stop-color="#001220" stop-opacity="1"></stop><stop offset="90%" stop-color="#1d2540" stop-opacity="1"></stop></linearGradient></defs><g transform="translate(900, 450)"><path d="M-405 0C-368.6 -12.7 -332.2 -25.4 -327.6 -39.8C-322.9 -54.2 -350 -70.3 -369.9 -91.2C-389.8 -112.1 -402.5 -137.9 -378.7 -143.6C-354.9 -149.4 -294.6 -135.1 -290.4 -152.4C-286.3 -169.8 -338.3 -218.7 -332.5 -229.5C-326.6 -240.3 -262.9 -212.8 -232.8 -206.2C-202.7 -199.7 -206.1 -214 -212.2 -239.5C-218.3 -265 -227.1 -301.8 -221 -320.1C-214.9 -338.5 -194 -338.5 -172.9 -329.4C-151.8 -320.2 -130.6 -301.9 -117.7 -310.4C-104.9 -318.9 -100.4 -354.3 -88.5 -359.2C-76.7 -364.2 -57.5 -338.9 -41.5 -341.5C-25.5 -344.1 -12.7 -374.5 0 -405L0 0Z" fill="#0c1c30"></path><path d="M-354.4 0C-322.5 -11.1 -290.7 -22.2 -286.6 -34.8C-282.6 -47.4 -306.3 -61.5 -323.7 -79.8C-341.1 -98.1 -352.2 -120.6 -331.3 -125.7C-310.5 -130.7 -257.7 -118.2 -254.1 -133.4C-250.5 -148.6 -296 -191.4 -290.9 -200.8C-285.8 -210.2 -230.1 -186.2 -203.7 -180.5C-177.3 -174.7 -180.3 -187.2 -185.7 -209.6C-191 -231.9 -198.7 -264 -193.4 -280.1C-188 -296.2 -169.7 -296.2 -151.3 -288.2C-132.8 -280.2 -114.3 -264.2 -103 -271.6C-91.8 -279.1 -87.9 -310 -77.5 -314.3C-67.1 -318.7 -50.3 -296.6 -36.3 -298.8C-22.3 -301.1 -11.1 -327.7 0 -354.4L0 0Z" fill="#312c4f"></path><path d="M-303.7 0C-276.5 -9.5 -249.2 -19 -245.7 -29.8C-242.2 -40.6 -262.5 -52.7 -277.4 -68.4C-292.4 -84.1 -301.9 -103.4 -284 -107.7C-266.2 -112 -220.9 -101.3 -217.8 -114.3C-214.7 -127.3 -253.7 -164.1 -249.4 -172.1C-245 -180.2 -197.2 -159.6 -174.6 -154.7C-152 -149.8 -154.6 -160.5 -159.1 -179.6C-163.7 -198.8 -170.3 -226.3 -165.7 -240.1C-161.2 -253.9 -145.5 -253.9 -129.7 -247C-113.8 -240.2 -97.9 -226.4 -88.3 -232.8C-78.7 -239.2 -75.3 -265.7 -66.4 -269.4C-57.5 -273.2 -43.1 -254.2 -31.1 -256.1C-19.1 -258 -9.6 -280.9 0 -303.7L0 0Z" fill="#623965"></path><path d="M-253.1 0C-230.4 -7.9 -207.6 -15.9 -204.7 -24.9C-201.8 -33.9 -218.8 -43.9 -231.2 -57C-243.6 -70.1 -251.6 -86.2 -236.7 -89.8C-221.8 -93.3 -184.1 -84.4 -181.5 -95.3C-178.9 -106.1 -211.5 -136.7 -207.8 -143.4C-204.2 -150.2 -164.3 -133 -145.5 -128.9C-126.7 -124.8 -128.8 -133.7 -132.6 -149.7C-136.4 -165.7 -141.9 -188.6 -138.1 -200.1C-134.3 -211.6 -121.2 -211.6 -108 -205.9C-94.9 -200.2 -81.6 -188.7 -73.6 -194C-65.6 -199.3 -62.8 -221.4 -55.3 -224.5C-47.9 -227.7 -35.9 -211.8 -25.9 -213.4C-15.9 -215 -8 -234.1 0 -253.1L0 0Z" fill="#96446e"></path><path d="M-202.5 0C-184.3 -6.3 -166.1 -12.7 -163.8 -19.9C-161.5 -27.1 -175 -35.1 -185 -45.6C-194.9 -56.1 -201.2 -68.9 -189.3 -71.8C-177.4 -74.7 -147.3 -67.5 -145.2 -76.2C-143.1 -84.9 -169.2 -109.4 -166.2 -114.7C-163.3 -120.1 -131.5 -106.4 -116.4 -103.1C-101.3 -99.8 -103 -107 -106.1 -119.8C-109.2 -132.5 -113.5 -150.9 -110.5 -160.1C-107.4 -169.3 -97 -169.3 -86.4 -164.7C-75.9 -160.1 -65.3 -151 -58.9 -155.2C-52.4 -159.5 -50.2 -177.1 -44.3 -179.6C-38.3 -182.1 -28.7 -169.5 -20.7 -170.7C-12.7 -172 -6.4 -187.3 0 -202.5L0 0Z" fill="#c55469"></path><path d="M-151.9 0C-138.2 -4.8 -124.6 -9.5 -122.8 -14.9C-121.1 -20.3 -131.3 -26.3 -138.7 -34.2C-146.2 -42 -150.9 -51.7 -142 -53.9C-133.1 -56 -110.5 -50.7 -108.9 -57.2C-107.4 -63.7 -126.9 -82 -124.7 -86.1C-122.5 -90.1 -98.6 -79.8 -87.3 -77.3C-76 -74.9 -77.3 -80.2 -79.6 -89.8C-81.9 -99.4 -85.1 -113.2 -82.9 -120.1C-80.6 -126.9 -72.7 -127 -64.8 -123.5C-56.9 -120.1 -49 -113.2 -44.1 -116.4C-39.3 -119.6 -37.7 -132.8 -33.2 -134.7C-28.8 -136.6 -21.5 -127.1 -15.5 -128.1C-9.6 -129 -4.8 -140.4 0 -151.9L0 0Z" fill="#e9705a"></path><path d="M-101.2 0C-92.2 -3.2 -83.1 -6.3 -81.9 -9.9C-80.7 -13.5 -87.5 -17.6 -92.5 -22.8C-97.5 -28 -100.6 -34.5 -94.7 -35.9C-88.7 -37.3 -73.6 -33.8 -72.6 -38.1C-71.6 -42.4 -84.6 -54.7 -83.1 -57.4C-81.7 -60.1 -65.7 -53.2 -58.2 -51.6C-50.7 -49.9 -51.5 -53.5 -53 -59.9C-54.6 -66.3 -56.8 -75.4 -55.2 -80C-53.7 -84.6 -48.5 -84.6 -43.2 -82.3C-37.9 -80.1 -32.6 -75.5 -29.4 -77.6C-26.2 -79.7 -25.1 -88.6 -22.1 -89.8C-19.2 -91.1 -14.4 -84.7 -10.4 -85.4C-6.4 -86 -3.2 -93.6 0 -101.2L0 0Z" fill="#fa9845"></path><path d="M-50.6 0C-46.1 -1.6 -41.5 -3.2 -40.9 -5C-40.4 -6.8 -43.8 -8.8 -46.2 -11.4C-48.7 -14 -50.3 -17.2 -47.3 -18C-44.4 -18.7 -36.8 -16.9 -36.3 -19.1C-35.8 -21.2 -42.3 -27.3 -41.6 -28.7C-40.8 -30 -32.9 -26.6 -29.1 -25.8C-25.3 -25 -25.8 -26.7 -26.5 -29.9C-27.3 -33.1 -28.4 -37.7 -27.6 -40C-26.9 -42.3 -24.2 -42.3 -21.6 -41.2C-19 -40 -16.3 -37.7 -14.7 -38.8C-13.1 -39.9 -12.6 -44.3 -11.1 -44.9C-9.6 -45.5 -7.2 -42.4 -5.2 -42.7C-3.2 -43 -1.6 -46.8 0 -50.6L0 0Z" fill="#fbae3c"></path></g><g transform="translate(0, 0)"><path d="M405 0C398.3 14.8 391.6 29.6 395.1 48C398.6 66.4 412.3 88.4 384.5 94.8C356.7 101.1 287.2 91.7 283.3 107.4C279.4 123.2 340.9 163.9 356 186.8C371 209.7 339.5 214.6 311.9 215.3C284.4 215.9 260.7 212.3 250.8 222.1C240.8 232 244.4 255.3 240.7 271.7C237 288.1 226 297.5 217 314.4C208 331.3 201 355.7 180.3 343.6C159.6 331.4 125.1 282.7 111.7 294.5C98.3 306.4 105.9 378.8 96.9 393.2C87.9 407.7 62.2 364.1 43.3 356.4C24.3 348.7 12.2 376.8 0 405L0 0Z" fill="#0c1c30"></path><path d="M354.4 0C348.5 12.9 342.6 25.9 345.7 42C348.8 58.1 360.8 77.4 336.4 82.9C312.1 88.5 251.3 80.3 247.9 94C244.5 107.8 298.3 143.5 311.5 163.5C324.6 183.5 297 187.8 272.9 188.4C248.8 189 228.1 185.8 219.4 194.4C210.7 203 213.9 223.4 210.6 237.7C207.4 252.1 197.7 260.3 189.9 275.1C182 289.9 175.9 311.2 157.8 300.6C139.6 290 109.5 247.3 97.7 257.7C86 268.1 92.7 331.5 84.8 344.1C76.9 356.7 54.4 318.6 37.9 311.8C21.3 305.1 10.6 329.7 0 354.4L0 0Z" fill="#312c4f"></path><path d="M303.8 0C298.7 11.1 293.7 22.2 296.3 36C299 49.8 309.3 66.3 288.4 71.1C267.5 75.8 215.4 68.8 212.5 80.6C209.5 92.4 255.7 123 267 140.1C278.2 157.3 254.6 161 233.9 161.5C213.3 162 195.6 159.2 188.1 166.6C180.6 174 183.3 191.5 180.5 203.8C177.8 216.1 169.5 223.1 162.8 235.8C156 248.5 150.8 266.8 135.2 257.7C119.7 248.6 93.8 212 83.8 220.9C73.7 229.8 79.5 284.1 72.7 294.9C65.9 305.7 46.7 273.1 32.5 267.3C18.3 261.5 9.1 282.6 0 303.8L0 0Z" fill="#623965"></path><path d="M253.1 0C248.9 9.2 244.7 18.5 246.9 30C249.1 41.5 257.7 55.3 240.3 59.2C222.9 63.2 179.5 57.3 177.1 67.2C174.6 77 213.1 102.5 222.5 116.8C231.9 131.1 212.2 134.2 194.9 134.6C177.7 135 163 132.7 156.7 138.8C150.5 145 152.8 159.6 150.4 169.8C148.1 180 141.2 185.9 135.6 196.5C130 207.1 125.6 222.3 112.7 214.7C99.7 207.1 78.2 176.7 69.8 184.1C61.4 191.5 66.2 236.8 60.6 245.8C54.9 254.8 38.9 227.6 27 222.7C15.2 217.9 7.6 235.5 0 253.1L0 0Z" fill="#96446e"></path><path d="M202.5 0C199.1 7.4 195.8 14.8 197.5 24C199.3 33.2 206.2 44.2 192.2 47.4C178.3 50.6 143.6 45.9 141.7 53.7C139.7 61.6 170.5 82 178 93.4C185.5 104.8 169.7 107.3 156 107.6C142.2 108 130.4 106.1 125.4 111.1C120.4 116 122.2 127.7 120.4 135.9C118.5 144 113 148.7 108.5 157.2C104 165.6 100.5 177.9 90.2 171.8C79.8 165.7 62.6 141.3 55.9 147.3C49.1 153.2 53 189.4 48.5 196.6C44 203.8 31.1 182 21.6 178.2C12.2 174.3 6.1 188.4 0 202.5L0 0Z" fill="#c55469"></path><path d="M151.9 0C149.4 5.5 146.8 11.1 148.2 18C149.5 24.9 154.6 33.2 144.2 35.5C133.7 37.9 107.7 34.4 106.2 40.3C104.8 46.2 127.8 61.5 133.5 70.1C139.1 78.6 127.3 80.5 117 80.7C106.6 81 97.8 79.6 94 83.3C90.3 87 91.7 95.8 90.3 101.9C88.9 108 84.7 111.6 81.4 117.9C78 124.2 75.4 133.4 67.6 128.8C59.8 124.3 46.9 106 41.9 110.4C36.9 114.9 39.7 142.1 36.3 147.5C33 152.9 23.3 136.5 16.2 133.6C9.1 130.8 4.6 141.3 0 151.9L0 0Z" fill="#e9705a"></path><path d="M101.3 0C99.6 3.7 97.9 7.4 98.8 12C99.7 16.6 103.1 22.1 96.1 23.7C89.2 25.3 71.8 22.9 70.8 26.9C69.8 30.8 85.2 41 89 46.7C92.7 52.4 84.9 53.7 78 53.8C71.1 54 65.2 53.1 62.7 55.5C60.2 58 61.1 63.8 60.2 67.9C59.3 72 56.5 74.4 54.3 78.6C52 82.8 50.3 88.9 45.1 85.9C39.9 82.9 31.3 70.7 27.9 73.6C24.6 76.6 26.5 94.7 24.2 98.3C22 101.9 15.6 91 10.8 89.1C6.1 87.2 3 94.2 0 101.3L0 0Z" fill="#fa9845"></path><path d="M50.6 0C49.8 1.8 48.9 3.7 49.4 6C49.8 8.3 51.5 11.1 48.1 11.8C44.6 12.6 35.9 11.5 35.4 13.4C34.9 15.4 42.6 20.5 44.5 23.4C46.4 26.2 42.4 26.8 39 26.9C35.5 27 32.6 26.5 31.3 27.8C30.1 29 30.6 31.9 30.1 34C29.6 36 28.2 37.2 27.1 39.3C26 41.4 25.1 44.5 22.5 42.9C19.9 41.4 15.6 35.3 14 36.8C12.3 38.3 13.2 47.4 12.1 49.2C11 51 7.8 45.5 5.4 44.5C3 43.6 1.5 47.1 0 50.6L0 0Z" fill="#fbae3c"></path></g></svg>