<svg id="visual" viewBox="0 0 450 900" width="450" height="900" xmlns="http://www.w3.org/2000/svg" xmlns:xlink="http://www.w3.org/1999/xlink" version="1.1"><rect x="0" y="0" width="450" height="900" fill="#360012"></rect><path d="M46 900L46 831L46 762L46 692L46 623L46 554L46 485L46 415L46 346L46 277L46 208L46 138L46 69L46 0L450 0L450 69L450 138L450 208L450 277L450 346L450 415L450 485L450 554L450 623L450 692L450 762L450 831L450 900Z" fill="#ffd100"></path><path d="M91 900L91 831L91 762L91 692L91 623L91 554L91 485L91 415L91 346L91 277L91 208L91 138L91 69L91 0L450 0L450 69L450 138L450 208L450 277L450 346L450 415L450 485L450 554L450 623L450 692L450 762L450 831L450 900Z" fill="#e98222"></path><path d="M136 900L136 831L136 762L136 692L136 623L136 554L136 485L136 415L136 346L136 277L136 208L136 138L136 69L136 0L450 0L450 69L450 138L450 208L450 277L450 346L450 415L450 485L450 554L450 623L450 692L450 762L450 831L450 900Z" fill="#b53f32"></path><path d="M181 900L181 831L181 762L181 692L181 623L181 554L181 485L181 415L181 346L181 277L181 208L181 138L181 69L181 0L450 0L450 69L450 138L450 208L450 277L450 346L450 415L450 485L450 554L450 623L450 692L450 762L450 831L450 900Z" fill="#6f082f"></path><path d="M226 900L226 831L226 762L226 692L226 623L226 554L226 485L226 415L226 346L226 277L226 208L226 138L226 69L226 0L450 0L450 69L450 138L450 208L450 277L450 346L450 415L450 485L450 554L450 623L450 692L450 762L450 831L450 900Z" fill="#60002c"></path><path d="M271 900L271 831L271 762L271 692L271 623L271 554L271 485L271 415L271 346L271 277L271 208L271 138L271 69L271 0L450 0L450 69L450 138L450 208L450 277L450 346L450 415L450 485L450 554L450 623L450 692L450 762L450 831L450 900Z" fill="#6f082f"></path><path d="M316 900L316 831L316 762L316 692L316 623L316 554L316 485L316 415L316 346L316 277L316 208L316 138L316 69L316 0L450 0L450 69L450 138L450 208L450 277L450 346L450 415L450 485L450 554L450 623L450 692L450 762L450 831L450 900Z" fill="#b53f32"></path><path d="M361 900L361 831L361 762L361 692L361 623L361 554L361 485L361 415L361 346L361 277L361 208L361 138L361 69L361 0L450 0L450 69L450 138L450 208L450 277L450 346L450 415L450 485L450 554L450 623L450 692L450 762L450 831L450 900Z" fill="#e98222"></path><path d="M406 900L406 831L406 762L406 692L406 623L406 554L406 485L406 415L406 346L406 277L406 208L406 138L406 69L406 0L450 0L450 69L450 138L450 208L450 277L450 346L450 415L450 485L450 554L450 623L450 692L450 762L450 831L450 900Z" fill="#ffd100"></path></svg>