<svg id="visual" viewBox="0 0 1900 450" width="1900" height="450" xmlns="http://www.w3.org/2000/svg" xmlns:xlink="http://www.w3.org/1999/xlink" version="1.1"><rect x="0" y="0" width="1900" height="450" fill="#1e0021"></rect><path d="M0 278L146 304L292 296L438 285L585 350L731 293L877 347L1023 320L1169 267L1315 326L1462 326L1608 353L1754 300L1900 304L1900 451L1754 451L1608 451L1462 451L1315 451L1169 451L1023 451L877 451L731 451L585 451L438 451L292 451L146 451L0 451Z" fill="#ff7300"></path><path d="M0 299L146 329L292 352L438 362L585 291L731 327L877 285L1023 314L1169 279L1315 306L1462 357L1608 335L1754 317L1900 317L1900 451L1754 451L1608 451L1462 451L1315 451L1169 451L1023 451L877 451L731 451L585 451L438 451L292 451L146 451L0 451Z" fill="#f55f1d"></path><path d="M0 333L146 320L292 354L438 324L585 306L731 307L877 363L1023 355L1169 307L1315 322L1462 318L1608 334L1754 324L1900 324L1900 451L1754 451L1608 451L1462 451L1315 451L1169 451L1023 451L877 451L731 451L585 451L438 451L292 451L146 451L0 451Z" fill="#e84d2a"></path><path d="M0 309L146 355L292 347L438 320L585 317L731 315L877 330L1023 371L1169 320L1315 323L1462 374L1608 368L1754 332L1900 314L1900 451L1754 451L1608 451L1462 451L1315 451L1169 451L1023 451L877 451L731 451L585 451L438 451L292 451L146 451L0 451Z" fill="#d93b33"></path><path d="M0 368L146 378L292 332L438 350L585 345L731 379L877 354L1023 336L1169 364L1315 384L1462 351L1608 361L1754 345L1900 345L1900 451L1754 451L1608 451L1462 451L1315 451L1169 451L1023 451L877 451L731 451L585 451L438 451L292 451L146 451L0 451Z" fill="#c82b39"></path><path d="M0 369L146 349L292 361L438 338L585 379L731 343L877 351L1023 367L1169 357L1315 364L1462 391L1608 358L1754 365L1900 343L1900 451L1754 451L1608 451L1462 451L1315 451L1169 451L1023 451L877 451L731 451L585 451L438 451L292 451L146 451L0 451Z" fill="#b61c3d"></path><path d="M0 394L146 401L292 374L438 383L585 377L731 367L877 362L1023 366L1169 403L1315 390L1462 358L1608 370L1754 400L1900 397L1900 451L1754 451L1608 451L1462 451L1315 451L1169 451L1023 451L877 451L731 451L585 451L438 451L292 451L146 451L0 451Z" fill="#a20e3f"></path><path d="M0 368L146 401L292 363L438 377L585 388L731 394L877 371L1023 369L1169 391L1315 375L1462 393L1608 387L1754 388L1900 377L1900 451L1754 451L1608 451L1462 451L1315 451L1169 451L1023 451L877 451L731 451L585 451L438 451L292 451L146 451L0 451Z" fill="#8d033f"></path><path d="M0 384L146 411L292 379L438 386L585 417L731 380L877 417L1023 416L1169 377L1315 412L1462 388L1608 382L1754 393L1900 403L1900 451L1754 451L1608 451L1462 451L1315 451L1169 451L1023 451L877 451L731 451L585 451L438 451L292 451L146 451L0 451Z" fill="#78003d"></path><path d="M0 395L146 413L292 404L438 418L585 414L731 400L877 406L1023 399L1169 401L1315 405L1462 424L1608 398L1754 422L1900 423L1900 451L1754 451L1608 451L1462 451L1315 451L1169 451L1023 451L877 451L731 451L585 451L438 451L292 451L146 451L0 451Z" fill="#63003a"></path><path d="M0 415L146 424L292 412L438 422L585 413L731 409L877 428L1023 429L1169 427L1315 434L1462 425L1608 423L1754 428L1900 414L1900 451L1754 451L1608 451L1462 451L1315 451L1169 451L1023 451L877 451L731 451L585 451L438 451L292 451L146 451L0 451Z" fill="#4e0034"></path><path d="M0 435L146 429L292 441L438 430L585 435L731 425L877 434L1023 424L1169 432L1315 434L1462 427L1608 438L1754 430L1900 433L1900 451L1754 451L1608 451L1462 451L1315 451L1169 451L1023 451L877 451L731 451L585 451L438 451L292 451L146 451L0 451Z" fill="#3a002d"></path></svg>