<svg id="visual" viewBox="0 0 675 900" width="675" height="900" xmlns="http://www.w3.org/2000/svg" xmlns:xlink="http://www.w3.org/1999/xlink" version="1.1"><path d="M0 135L7.5 133.8C15 132.7 30 130.3 45 127C60 123.7 75 119.3 90 119.7C105 120 120 125 135 130.3C150 135.7 165 141.3 180 142.2C195 143 210 139 225 134C240 129 255 123 270 125.2C285 127.3 300 137.7 315 138.8C330 140 345 132 360 126C375 120 390 116 405 114.8C420 113.7 435 115.3 450 118C465 120.7 480 124.3 495 128.2C510 132 525 136 540 139C555 142 570 144 585 140.5C600 137 615 128 630 122.5C645 117 660 115 667.5 114L675 113L675 0L667.5 0C660 0 645 0 630 0C615 0 600 0 585 0C570 0 555 0 540 0C525 0 510 0 495 0C480 0 465 0 450 0C435 0 420 0 405 0C390 0 375 0 360 0C345 0 330 0 315 0C300 0 285 0 270 0C255 0 240 0 225 0C210 0 195 0 180 0C165 0 150 0 135 0C120 0 105 0 90 0C75 0 60 0 45 0C30 0 15 0 7.5 0L0 0Z" fill="#ffaa00"></path><path d="M0 123L7.5 122.3C15 121.7 30 120.3 45 118.7C60 117 75 115 90 114C105 113 120 113 135 114.7C150 116.3 165 119.7 180 122.2C195 124.7 210 126.3 225 122.2C240 118 255 108 270 107C285 106 300 114 315 119.7C330 125.3 345 128.7 360 126.2C375 123.7 390 115.3 405 111.2C420 107 435 107 450 109.2C465 111.3 480 115.7 495 116.8C510 118 525 116 540 117.2C555 118.3 570 122.7 585 124C600 125.3 615 123.7 630 122.7C645 121.7 660 121.3 667.5 121.2L675 121L675 0L667.5 0C660 0 645 0 630 0C615 0 600 0 585 0C570 0 555 0 540 0C525 0 510 0 495 0C480 0 465 0 450 0C435 0 420 0 405 0C390 0 375 0 360 0C345 0 330 0 315 0C300 0 285 0 270 0C255 0 240 0 225 0C210 0 195 0 180 0C165 0 150 0 135 0C120 0 105 0 90 0C75 0 60 0 45 0C30 0 15 0 7.5 0L0 0Z" fill="#ff9b00"></path><path d="M0 97L7.5 96.2C15 95.3 30 93.7 45 93.2C60 92.7 75 93.3 90 93.7C105 94 120 94 135 95.7C150 97.3 165 100.7 180 101.5C195 102.3 210 100.7 225 100.8C240 101 255 103 270 105C285 107 300 109 315 109C330 109 345 107 360 107C375 107 390 109 405 108.3C420 107.7 435 104.3 450 104.2C465 104 480 107 495 108.2C510 109.3 525 108.7 540 107.8C555 107 570 106 585 103.5C600 101 615 97 630 98.7C645 100.3 660 107.7 667.5 111.3L675 115L675 0L667.5 0C660 0 645 0 630 0C615 0 600 0 585 0C570 0 555 0 540 0C525 0 510 0 495 0C480 0 465 0 450 0C435 0 420 0 405 0C390 0 375 0 360 0C345 0 330 0 315 0C300 0 285 0 270 0C255 0 240 0 225 0C210 0 195 0 180 0C165 0 150 0 135 0C120 0 105 0 90 0C75 0 60 0 45 0C30 0 15 0 7.5 0L0 0Z" fill="#ff8b00"></path><path d="M0 80L7.5 78.8C15 77.7 30 75.3 45 77.3C60 79.3 75 85.7 90 87C105 88.3 120 84.7 135 85.2C150 85.7 165 90.3 180 89C195 87.7 210 80.3 225 80.5C240 80.7 255 88.3 270 92.2C285 96 300 96 315 95.5C330 95 345 94 360 91.7C375 89.3 390 85.7 405 82.2C420 78.7 435 75.3 450 76.7C465 78 480 84 495 85.7C510 87.3 525 84.7 540 81.3C555 78 570 74 585 72.2C600 70.3 615 70.7 630 71.3C645 72 660 73 667.5 73.5L675 74L675 0L667.5 0C660 0 645 0 630 0C615 0 600 0 585 0C570 0 555 0 540 0C525 0 510 0 495 0C480 0 465 0 450 0C435 0 420 0 405 0C390 0 375 0 360 0C345 0 330 0 315 0C300 0 285 0 270 0C255 0 240 0 225 0C210 0 195 0 180 0C165 0 150 0 135 0C120 0 105 0 90 0C75 0 60 0 45 0C30 0 15 0 7.5 0L0 0Z" fill="#ff7b00"></path><path d="M0 77L7.5 74.8C15 72.7 30 68.3 45 67.7C60 67 75 70 90 70.2C105 70.3 120 67.7 135 66.7C150 65.7 165 66.3 180 67.2C195 68 210 69 225 67.5C240 66 255 62 270 61.2C285 60.3 300 62.7 315 62.7C330 62.7 345 60.3 360 59.2C375 58 390 58 405 58.3C420 58.7 435 59.3 450 62.8C465 66.3 480 72.7 495 76C510 79.3 525 79.7 540 78.2C555 76.7 570 73.3 585 71.8C600 70.3 615 70.7 630 70C645 69.3 660 67.7 667.5 66.8L675 66L675 0L667.5 0C660 0 645 0 630 0C615 0 600 0 585 0C570 0 555 0 540 0C525 0 510 0 495 0C480 0 465 0 450 0C435 0 420 0 405 0C390 0 375 0 360 0C345 0 330 0 315 0C300 0 285 0 270 0C255 0 240 0 225 0C210 0 195 0 180 0C165 0 150 0 135 0C120 0 105 0 90 0C75 0 60 0 45 0C30 0 15 0 7.5 0L0 0Z" fill="#ff6900"></path><path d="M0 44L7.5 46C15 48 30 52 45 54.7C60 57.3 75 58.7 90 59C105 59.3 120 58.7 135 58.8C150 59 165 60 180 57.8C195 55.7 210 50.3 225 48.3C240 46.3 255 47.7 270 47.7C285 47.7 300 46.3 315 48.3C330 50.3 345 55.7 360 57.2C375 58.7 390 56.3 405 54.2C420 52 435 50 450 48.5C465 47 480 46 495 46.7C510 47.3 525 49.7 540 51.2C555 52.7 570 53.3 585 51.7C600 50 615 46 630 44.3C645 42.7 660 43.3 667.5 43.7L675 44L675 0L667.5 0C660 0 645 0 630 0C615 0 600 0 585 0C570 0 555 0 540 0C525 0 510 0 495 0C480 0 465 0 450 0C435 0 420 0 405 0C390 0 375 0 360 0C345 0 330 0 315 0C300 0 285 0 270 0C255 0 240 0 225 0C210 0 195 0 180 0C165 0 150 0 135 0C120 0 105 0 90 0C75 0 60 0 45 0C30 0 15 0 7.5 0L0 0Z" fill="#ff5400"></path><path d="M0 41L7.5 40.7C15 40.3 30 39.7 45 39.5C60 39.3 75 39.7 90 39.2C105 38.7 120 37.3 135 37C150 36.7 165 37.3 180 36.2C195 35 210 32 225 31.7C240 31.3 255 33.7 270 34.8C285 36 300 36 315 37.5C330 39 345 42 360 42C375 42 390 39 405 36.3C420 33.7 435 31.3 450 30C465 28.7 480 28.3 495 28.3C510 28.3 525 28.7 540 30.3C555 32 570 35 585 36.8C600 38.7 615 39.3 630 38.3C645 37.3 660 34.7 667.5 33.3L675 32L675 0L667.5 0C660 0 645 0 630 0C615 0 600 0 585 0C570 0 555 0 540 0C525 0 510 0 495 0C480 0 465 0 450 0C435 0 420 0 405 0C390 0 375 0 360 0C345 0 330 0 315 0C300 0 285 0 270 0C255 0 240 0 225 0C210 0 195 0 180 0C165 0 150 0 135 0C120 0 105 0 90 0C75 0 60 0 45 0C30 0 15 0 7.5 0L0 0Z" fill="#ff3a00"></path><path d="M0 13L7.5 14C15 15 30 17 45 18C60 19 75 19 90 20.3C105 21.7 120 24.3 135 25.7C150 27 165 27 180 26.2C195 25.3 210 23.7 225 21.2C240 18.7 255 15.3 270 14.2C285 13 300 14 315 15.5C330 17 345 19 360 21C375 23 390 25 405 24C420 23 435 19 450 18.8C465 18.7 480 22.3 495 23.2C510 24 525 22 540 21.5C555 21 570 22 585 22.5C600 23 615 23 630 22.7C645 22.3 660 21.7 667.5 21.3L675 21L675 0L667.5 0C660 0 645 0 630 0C615 0 600 0 585 0C570 0 555 0 540 0C525 0 510 0 495 0C480 0 465 0 450 0C435 0 420 0 405 0C390 0 375 0 360 0C345 0 330 0 315 0C300 0 285 0 270 0C255 0 240 0 225 0C210 0 195 0 180 0C165 0 150 0 135 0C120 0 105 0 90 0C75 0 60 0 45 0C30 0 15 0 7.5 0L0 0Z" fill="#ff0000"></path></svg>