<svg id="visual" viewBox="0 0 900 450" width="900" height="450" xmlns="http://www.w3.org/2000/svg" xmlns:xlink="http://www.w3.org/1999/xlink" version="1.1"><path d="M0 404L4.8 400.5C9.7 397 19.3 390 29 388.3C38.7 386.7 48.3 390.3 58 393.7C67.7 397 77.3 400 87 399.8C96.7 399.7 106.3 396.3 116 393C125.7 389.7 135.3 386.3 145 387.2C154.7 388 164.3 393 174 389C183.7 385 193.3 372 203 367.7C212.7 363.3 222.3 367.7 232 375C241.7 382.3 251.3 392.7 261 395.8C270.7 399 280.3 395 290 390.7C299.7 386.3 309.3 381.7 319 379.5C328.7 377.3 338.3 377.7 348 381.3C357.7 385 367.3 392 377 389.3C386.7 386.7 396.3 374.3 406 372.7C415.7 371 425.3 380 435.2 387C445 394 455 399 464.8 397C474.7 395 484.3 386 494 383.8C503.7 381.7 513.3 386.3 523 386.8C532.7 387.3 542.3 383.7 552 383C561.7 382.3 571.3 384.7 581 389C590.7 393.3 600.3 399.7 610 399.3C619.7 399 629.3 392 639 387C648.7 382 658.3 379 668 381C677.7 383 687.3 390 697 387.8C706.7 385.7 716.3 374.3 726 373.3C735.7 372.3 745.3 381.7 755 384.7C764.7 387.7 774.3 384.3 784 379.7C793.7 375 803.3 369 813 366.3C822.7 363.7 832.3 364.3 842 371.3C851.7 378.3 861.3 391.7 871 390.5C880.7 389.3 890.3 373.7 895.2 365.8L900 358" fill="none" stroke-linecap="round" stroke-linejoin="miter" stroke="#ffefd5" stroke-width="40"></path></svg>