<svg id="visual" viewBox="0 0 675 900" width="675" height="900" xmlns="http://www.w3.org/2000/svg" xmlns:xlink="http://www.w3.org/1999/xlink" version="1.1"><path d="M0 28L8 29.5C16 31 32 34 48 34C64 34 80 31 96.2 31C112.3 31 128.7 34 144.8 34C161 34 177 31 193 31C209 31 225 34 241 34C257 34 273 31 289.2 31C305.3 31 321.7 34 337.8 35.5C354 37 370 37 386 37C402 37 418 37 434 35.5C450 34 466 31 482 29.5C498 28 514 28 530.2 28C546.3 28 562.7 28 578.8 29.5C595 31 611 34 627 35.5C643 37 659 37 667 37L675 37L675 0L667 0C659 0 643 0 627 0C611 0 595 0 578.8 0C562.7 0 546.3 0 530.2 0C514 0 498 0 482 0C466 0 450 0 434 0C418 0 402 0 386 0C370 0 354 0 337.8 0C321.7 0 305.3 0 289.2 0C273 0 257 0 241 0C225 0 209 0 193 0C177 0 161 0 144.8 0C128.7 0 112.3 0 96.2 0C80 0 64 0 48 0C32 0 16 0 8 0L0 0Z" fill="#ffb900"></path><path d="M0 226L8 220C16 214 32 202 48 202C64 202 80 214 96.2 223C112.3 232 128.7 238 144.8 235C161 232 177 220 193 227.5C209 235 225 262 241 265C257 268 273 247 289.2 232C305.3 217 321.7 208 337.8 214C354 220 370 241 386 245.5C402 250 418 238 434 236.5C450 235 466 244 482 250C498 256 514 259 530.2 244C546.3 229 562.7 196 578.8 190C595 184 611 205 627 217C643 229 659 232 667 233.5L675 235L675 35L667 35C659 35 643 35 627 33.5C611 32 595 29 578.8 27.5C562.7 26 546.3 26 530.2 26C514 26 498 26 482 27.5C466 29 450 32 434 33.5C418 35 402 35 386 35C370 35 354 35 337.8 33.5C321.7 32 305.3 29 289.2 29C273 29 257 32 241 32C225 32 209 29 193 29C177 29 161 32 144.8 32C128.7 32 112.3 29 96.2 29C80 29 64 32 48 32C32 32 16 29 8 27.5L0 26Z" fill="#f9a113"></path><path d="M0 298L8 289C16 280 32 262 48 260.5C64 259 80 274 96.2 284.5C112.3 295 128.7 301 144.8 296.5C161 292 177 277 193 289C209 301 225 340 241 344.5C257 349 273 319 289.2 296.5C305.3 274 321.7 259 337.8 266.5C354 274 370 304 386 310C402 316 418 298 434 298C450 298 466 316 482 328C498 340 514 346 530.2 329.5C546.3 313 562.7 274 578.8 262C595 250 611 265 627 272.5C643 280 659 280 667 280L675 280L675 233L667 231.5C659 230 643 227 627 215C611 203 595 182 578.8 188C562.7 194 546.3 227 530.2 242C514 257 498 254 482 248C466 242 450 233 434 234.5C418 236 402 248 386 243.5C370 239 354 218 337.8 212C321.7 206 305.3 215 289.2 230C273 245 257 266 241 263C225 260 209 233 193 225.5C177 218 161 230 144.8 233C128.7 236 112.3 230 96.2 221C80 212 64 200 48 200C32 200 16 212 8 218L0 224Z" fill="#f08b20"></path><path d="M0 442L8 446.5C16 451 32 460 48 461.5C64 463 80 457 96.2 451C112.3 445 128.7 439 144.8 431.5C161 424 177 415 193 430C209 445 225 484 241 481C257 478 273 433 289.2 422.5C305.3 412 321.7 436 337.8 449.5C354 463 370 466 386 457C402 448 418 427 434 431.5C450 436 466 466 482 479.5C498 493 514 490 530.2 484C546.3 478 562.7 469 578.8 457C595 445 611 430 627 427C643 424 659 433 667 437.5L675 442L675 278L667 278C659 278 643 278 627 270.5C611 263 595 248 578.8 260C562.7 272 546.3 311 530.2 327.5C514 344 498 338 482 326C466 314 450 296 434 296C418 296 402 314 386 308C370 302 354 272 337.8 264.5C321.7 257 305.3 272 289.2 294.5C273 317 257 347 241 342.5C225 338 209 299 193 287C177 275 161 290 144.8 294.5C128.7 299 112.3 293 96.2 282.5C80 272 64 257 48 258.5C32 260 16 278 8 287L0 296Z" fill="#e47529"></path><path d="M0 541L8 545.5C16 550 32 559 48 563.5C64 568 80 568 96.2 568C112.3 568 128.7 568 144.8 562C161 556 177 544 193 550C209 556 225 580 241 577C257 574 273 544 289.2 536.5C305.3 529 321.7 544 337.8 557.5C354 571 370 583 386 578.5C402 574 418 553 434 553C450 553 466 574 482 578.5C498 583 514 571 530.2 562C546.3 553 562.7 547 578.8 545.5C595 544 611 547 627 551.5C643 556 659 562 667 565L675 568L675 440L667 435.5C659 431 643 422 627 425C611 428 595 443 578.8 455C562.7 467 546.3 476 530.2 482C514 488 498 491 482 477.5C466 464 450 434 434 429.5C418 425 402 446 386 455C370 464 354 461 337.8 447.5C321.7 434 305.3 410 289.2 420.5C273 431 257 476 241 479C225 482 209 443 193 428C177 413 161 422 144.8 429.5C128.7 437 112.3 443 96.2 449C80 455 64 461 48 459.5C32 458 16 449 8 444.5L0 440Z" fill="#d6602f"></path><path d="M0 622L8 626.5C16 631 32 640 48 647.5C64 655 80 661 96.2 659.5C112.3 658 128.7 649 144.8 638.5C161 628 177 616 193 619C209 622 225 640 241 638.5C257 637 273 616 289.2 610C305.3 604 321.7 613 337.8 623.5C354 634 370 646 386 649C402 652 418 646 434 649C450 652 466 664 482 664C498 664 514 652 530.2 644.5C546.3 637 562.7 634 578.8 631C595 628 611 625 627 625C643 625 659 628 667 629.5L675 631L675 566L667 563C659 560 643 554 627 549.5C611 545 595 542 578.8 543.5C562.7 545 546.3 551 530.2 560C514 569 498 581 482 576.5C466 572 450 551 434 551C418 551 402 572 386 576.5C370 581 354 569 337.8 555.5C321.7 542 305.3 527 289.2 534.5C273 542 257 572 241 575C225 578 209 554 193 548C177 542 161 554 144.8 560C128.7 566 112.3 566 96.2 566C80 566 64 566 48 561.5C32 557 16 548 8 543.5L0 539Z" fill="#c54d34"></path><path d="M0 649L8 655C16 661 32 673 48 680.5C64 688 80 691 96.2 688C112.3 685 128.7 676 144.8 668.5C161 661 177 655 193 658C209 661 225 673 241 668.5C257 664 273 643 289.2 640C305.3 637 321.7 652 337.8 662.5C354 673 370 679 386 679C402 679 418 673 434 676C450 679 466 691 482 694C498 697 514 691 530.2 683.5C546.3 676 562.7 667 578.8 664C595 661 611 664 627 665.5C643 667 659 667 667 667L675 667L675 629L667 627.5C659 626 643 623 627 623C611 623 595 626 578.8 629C562.7 632 546.3 635 530.2 642.5C514 650 498 662 482 662C466 662 450 650 434 647C418 644 402 650 386 647C370 644 354 632 337.8 621.5C321.7 611 305.3 602 289.2 608C273 614 257 635 241 636.5C225 638 209 620 193 617C177 614 161 626 144.8 636.5C128.7 647 112.3 656 96.2 657.5C80 659 64 653 48 645.5C32 638 16 629 8 624.5L0 620Z" fill="#b23b36"></path><path d="M0 703L8 706C16 709 32 715 48 721C64 727 80 733 96.2 730C112.3 727 128.7 715 144.8 706C161 697 177 691 193 697C209 703 225 721 241 719.5C257 718 273 697 289.2 691C305.3 685 321.7 694 337.8 701.5C354 709 370 715 386 718C402 721 418 721 434 725.5C450 730 466 739 482 739C498 739 514 730 530.2 722.5C546.3 715 562.7 709 578.8 709C595 709 611 715 627 715C643 715 659 709 667 706L675 703L675 665L667 665C659 665 643 665 627 663.5C611 662 595 659 578.8 662C562.7 665 546.3 674 530.2 681.5C514 689 498 695 482 692C466 689 450 677 434 674C418 671 402 677 386 677C370 677 354 671 337.8 660.5C321.7 650 305.3 635 289.2 638C273 641 257 662 241 666.5C225 671 209 659 193 656C177 653 161 659 144.8 666.5C128.7 674 112.3 683 96.2 686C80 689 64 686 48 678.5C32 671 16 659 8 653L0 647Z" fill="#9e2b37"></path><path d="M0 739L8 743.5C16 748 32 757 48 763C64 769 80 772 96.2 769C112.3 766 128.7 757 144.8 751C161 745 177 742 193 745C209 748 225 757 241 755.5C257 754 273 742 289.2 737.5C305.3 733 321.7 736 337.8 742C354 748 370 757 386 758.5C402 760 418 754 434 757C450 760 466 772 482 776.5C498 781 514 778 530.2 773.5C546.3 769 562.7 763 578.8 761.5C595 760 611 763 627 760C643 757 659 748 667 743.5L675 739L675 701L667 704C659 707 643 713 627 713C611 713 595 707 578.8 707C562.7 707 546.3 713 530.2 720.5C514 728 498 737 482 737C466 737 450 728 434 723.5C418 719 402 719 386 716C370 713 354 707 337.8 699.5C321.7 692 305.3 683 289.2 689C273 695 257 716 241 717.5C225 719 209 701 193 695C177 689 161 695 144.8 704C128.7 713 112.3 725 96.2 728C80 731 64 725 48 719C32 713 16 707 8 704L0 701Z" fill="#881d36"></path><path d="M0 811L8 811C16 811 32 811 48 812.5C64 814 80 817 96.2 818.5C112.3 820 128.7 820 144.8 817C161 814 177 808 193 809.5C209 811 225 820 241 820C257 820 273 811 289.2 808C305.3 805 321.7 808 337.8 811C354 814 370 817 386 817C402 817 418 814 434 815.5C450 817 466 823 482 824.5C498 826 514 823 530.2 817C546.3 811 562.7 802 578.8 799C595 796 611 799 627 802C643 805 659 808 667 809.5L675 811L675 737L667 741.5C659 746 643 755 627 758C611 761 595 758 578.8 759.5C562.7 761 546.3 767 530.2 771.5C514 776 498 779 482 774.5C466 770 450 758 434 755C418 752 402 758 386 756.5C370 755 354 746 337.8 740C321.7 734 305.3 731 289.2 735.5C273 740 257 752 241 753.5C225 755 209 746 193 743C177 740 161 743 144.8 749C128.7 755 112.3 764 96.2 767C80 770 64 767 48 761C32 755 16 746 8 741.5L0 737Z" fill="#711033"></path><path d="M0 865L8 866.5C16 868 32 871 48 872.5C64 874 80 874 96.2 871C112.3 868 128.7 862 144.8 859C161 856 177 856 193 859C209 862 225 868 241 868C257 868 273 862 289.2 859C305.3 856 321.7 856 337.8 857.5C354 859 370 862 386 865C402 868 418 871 434 872.5C450 874 466 874 482 871C498 868 514 862 530.2 859C546.3 856 562.7 856 578.8 857.5C595 859 611 862 627 865C643 868 659 871 667 872.5L675 874L675 809L667 807.5C659 806 643 803 627 800C611 797 595 794 578.8 797C562.7 800 546.3 809 530.2 815C514 821 498 824 482 822.5C466 821 450 815 434 813.5C418 812 402 815 386 815C370 815 354 812 337.8 809C321.7 806 305.3 803 289.2 806C273 809 257 818 241 818C225 818 209 809 193 807.5C177 806 161 812 144.8 815C128.7 818 112.3 818 96.2 816.5C80 815 64 812 48 810.5C32 809 16 809 8 809L0 809Z" fill="#5b052e"></path><path d="M0 901L8 901C16 901 32 901 48 901C64 901 80 901 96.2 901C112.3 901 128.7 901 144.8 901C161 901 177 901 193 901C209 901 225 901 241 901C257 901 273 901 289.2 901C305.3 901 321.7 901 337.8 901C354 901 370 901 386 901C402 901 418 901 434 901C450 901 466 901 482 901C498 901 514 901 530.2 901C546.3 901 562.7 901 578.8 901C595 901 611 901 627 901C643 901 659 901 667 901L675 901L675 872L667 870.5C659 869 643 866 627 863C611 860 595 857 578.8 855.5C562.7 854 546.3 854 530.2 857C514 860 498 866 482 869C466 872 450 872 434 870.5C418 869 402 866 386 863C370 860 354 857 337.8 855.5C321.7 854 305.3 854 289.2 857C273 860 257 866 241 866C225 866 209 860 193 857C177 854 161 854 144.8 857C128.7 860 112.3 866 96.2 869C80 872 64 872 48 870.5C32 869 16 866 8 864.5L0 863Z" fill="#440027"></path></svg>