<svg id="visual" viewBox="0 0 450 900" width="450" height="900" xmlns="http://www.w3.org/2000/svg" xmlns:xlink="http://www.w3.org/1999/xlink" version="1.1"><rect x="0" y="0" width="450" height="900" fill="#140021"></rect><path d="M0 394L20 394L20 390L39 390L39 345L59 345L59 308L78 308L78 400L98 400L98 388L117 388L117 317L137 317L137 352L157 352L157 345L176 345L176 368L196 368L196 310L215 310L215 336L235 336L235 314L254 314L254 273L274 273L274 291L293 291L293 374L313 374L313 318L333 318L333 350L352 350L352 331L372 331L372 288L391 288L391 360L411 360L411 388L430 388L430 374L450 374L450 279L450 0L450 0L430 0L430 0L411 0L411 0L391 0L391 0L372 0L372 0L352 0L352 0L333 0L333 0L313 0L313 0L293 0L293 0L274 0L274 0L254 0L254 0L235 0L235 0L215 0L215 0L196 0L196 0L176 0L176 0L157 0L157 0L137 0L137 0L117 0L117 0L98 0L98 0L78 0L78 0L59 0L59 0L39 0L39 0L20 0L20 0L0 0Z" fill="#34c39c"></path><path d="M0 357L20 357L20 367L39 367L39 292L59 292L59 331L78 331L78 306L98 306L98 267L117 267L117 265L137 265L137 361L157 361L157 306L176 306L176 252L196 252L196 323L215 323L215 271L235 271L235 266L254 266L254 291L274 291L274 293L293 293L293 352L313 352L313 283L333 283L333 346L352 346L352 345L372 345L372 290L391 290L391 307L411 307L411 343L430 343L430 257L450 257L450 266L450 0L450 0L430 0L430 0L411 0L411 0L391 0L391 0L372 0L372 0L352 0L352 0L333 0L333 0L313 0L313 0L293 0L293 0L274 0L274 0L254 0L254 0L235 0L235 0L215 0L215 0L196 0L196 0L176 0L176 0L157 0L157 0L137 0L137 0L117 0L117 0L98 0L98 0L78 0L78 0L59 0L59 0L39 0L39 0L20 0L20 0L0 0Z" fill="#3ac99a"></path><path d="M0 246L20 246L20 275L39 275L39 325L59 325L59 248L78 248L78 301L98 301L98 265L117 265L117 285L137 285L137 254L157 254L157 229L176 229L176 246L196 246L196 251L215 251L215 317L235 317L235 281L254 281L254 304L274 304L274 286L293 286L293 318L313 318L313 341L333 341L333 261L352 261L352 253L372 253L372 238L391 238L391 304L411 304L411 308L430 308L430 309L450 309L450 286L450 0L450 0L430 0L430 0L411 0L411 0L391 0L391 0L372 0L372 0L352 0L352 0L333 0L333 0L313 0L313 0L293 0L293 0L274 0L274 0L254 0L254 0L235 0L235 0L215 0L215 0L196 0L196 0L176 0L176 0L157 0L157 0L137 0L137 0L117 0L117 0L98 0L98 0L78 0L78 0L59 0L59 0L39 0L39 0L20 0L20 0L0 0Z" fill="#42cf96"></path><path d="M0 250L20 250L20 276L39 276L39 218L59 218L59 257L78 257L78 237L98 237L98 217L117 217L117 304L137 304L137 244L157 244L157 228L176 228L176 215L196 215L196 207L215 207L215 211L235 211L235 282L254 282L254 214L274 214L274 270L293 270L293 281L313 281L313 266L333 266L333 290L352 290L352 239L372 239L372 240L391 240L391 233L411 233L411 267L430 267L430 205L450 205L450 267L450 0L450 0L430 0L430 0L411 0L411 0L391 0L391 0L372 0L372 0L352 0L352 0L333 0L333 0L313 0L313 0L293 0L293 0L274 0L274 0L254 0L254 0L235 0L235 0L215 0L215 0L196 0L196 0L176 0L176 0L157 0L157 0L137 0L137 0L117 0L117 0L98 0L98 0L78 0L78 0L59 0L59 0L39 0L39 0L20 0L20 0L0 0Z" fill="#4cd692"></path><path d="M0 228L20 228L20 230L39 230L39 222L59 222L59 247L78 247L78 225L98 225L98 248L117 248L117 229L137 229L137 262L157 262L157 272L176 272L176 207L196 207L196 227L215 227L215 265L235 265L235 222L254 222L254 183L274 183L274 217L293 217L293 222L313 222L313 206L333 206L333 249L352 249L352 255L372 255L372 262L391 262L391 187L411 187L411 238L430 238L430 194L450 194L450 183L450 0L450 0L430 0L430 0L411 0L411 0L391 0L391 0L372 0L372 0L352 0L352 0L333 0L333 0L313 0L313 0L293 0L293 0L274 0L274 0L254 0L254 0L235 0L235 0L215 0L215 0L196 0L196 0L176 0L176 0L157 0L157 0L137 0L137 0L117 0L117 0L98 0L98 0L78 0L78 0L59 0L59 0L39 0L39 0L20 0L20 0L0 0Z" fill="#58db8d"></path><path d="M0 178L20 178L20 240L39 240L39 190L59 190L59 164L78 164L78 196L98 196L98 165L117 165L117 224L137 224L137 162L157 162L157 169L176 169L176 183L196 183L196 217L215 217L215 194L235 194L235 219L254 219L254 160L274 160L274 226L293 226L293 175L313 175L313 182L333 182L333 183L352 183L352 226L372 226L372 172L391 172L391 184L411 184L411 166L430 166L430 207L450 207L450 196L450 0L450 0L430 0L430 0L411 0L411 0L391 0L391 0L372 0L372 0L352 0L352 0L333 0L333 0L313 0L313 0L293 0L293 0L274 0L274 0L254 0L254 0L235 0L235 0L215 0L215 0L196 0L196 0L176 0L176 0L157 0L157 0L137 0L137 0L117 0L117 0L98 0L98 0L78 0L78 0L59 0L59 0L39 0L39 0L20 0L20 0L0 0Z" fill="#64e188"></path><path d="M0 199L20 199L20 208L39 208L39 173L59 173L59 205L78 205L78 150L98 150L98 183L117 183L117 143L137 143L137 198L157 198L157 213L176 213L176 210L196 210L196 168L215 168L215 206L235 206L235 140L254 140L254 164L274 164L274 178L293 178L293 204L313 204L313 158L333 158L333 135L352 135L352 190L372 190L372 169L391 169L391 151L411 151L411 213L430 213L430 177L450 177L450 145L450 0L450 0L430 0L430 0L411 0L411 0L391 0L391 0L372 0L372 0L352 0L352 0L333 0L333 0L313 0L313 0L293 0L293 0L274 0L274 0L254 0L254 0L235 0L235 0L215 0L215 0L196 0L196 0L176 0L176 0L157 0L157 0L137 0L137 0L117 0L117 0L98 0L98 0L78 0L78 0L59 0L59 0L39 0L39 0L20 0L20 0L0 0Z" fill="#71e782"></path><path d="M0 175L20 175L20 128L39 128L39 111L59 111L59 157L78 157L78 155L98 155L98 170L117 170L117 110L137 110L137 167L157 167L157 169L176 169L176 124L196 124L196 179L215 179L215 138L235 138L235 126L254 126L254 139L274 139L274 132L293 132L293 150L313 150L313 114L333 114L333 126L352 126L352 115L372 115L372 142L391 142L391 172L411 172L411 155L430 155L430 162L450 162L450 133L450 0L450 0L430 0L430 0L411 0L411 0L391 0L391 0L372 0L372 0L352 0L352 0L333 0L333 0L313 0L313 0L293 0L293 0L274 0L274 0L254 0L254 0L235 0L235 0L215 0L215 0L196 0L196 0L176 0L176 0L157 0L157 0L137 0L137 0L117 0L117 0L98 0L98 0L78 0L78 0L59 0L59 0L39 0L39 0L20 0L20 0L0 0Z" fill="#7eec7b"></path><path d="M0 107L20 107L20 139L39 139L39 88L59 88L59 105L78 105L78 120L98 120L98 117L117 117L117 121L137 121L137 144L157 144L157 86L176 86L176 111L196 111L196 103L215 103L215 106L235 106L235 88L254 88L254 92L274 92L274 94L293 94L293 127L313 127L313 120L333 120L333 119L352 119L352 136L372 136L372 114L391 114L391 108L411 108L411 129L430 129L430 96L450 96L450 103L450 0L450 0L430 0L430 0L411 0L411 0L391 0L391 0L372 0L372 0L352 0L352 0L333 0L333 0L313 0L313 0L293 0L293 0L274 0L274 0L254 0L254 0L235 0L235 0L215 0L215 0L196 0L196 0L176 0L176 0L157 0L157 0L137 0L137 0L117 0L117 0L98 0L98 0L78 0L78 0L59 0L59 0L39 0L39 0L20 0L20 0L0 0Z" fill="#8cf174"></path><path d="M0 100L20 100L20 70L39 70L39 61L59 61L59 103L78 103L78 115L98 115L98 115L117 115L117 101L137 101L137 114L157 114L157 89L176 89L176 100L196 100L196 72L215 72L215 76L235 76L235 70L254 70L254 114L274 114L274 82L293 82L293 110L313 110L313 110L333 110L333 86L352 86L352 93L372 93L372 104L391 104L391 63L411 63L411 117L430 117L430 73L450 73L450 99L450 0L450 0L430 0L430 0L411 0L411 0L391 0L391 0L372 0L372 0L352 0L352 0L333 0L333 0L313 0L313 0L293 0L293 0L274 0L274 0L254 0L254 0L235 0L235 0L215 0L215 0L196 0L196 0L176 0L176 0L157 0L157 0L137 0L137 0L117 0L117 0L98 0L98 0L78 0L78 0L59 0L59 0L39 0L39 0L20 0L20 0L0 0Z" fill="#9bf66c"></path><path d="M0 46L20 46L20 59L39 59L39 82L59 82L59 62L78 62L78 40L98 40L98 84L117 84L117 56L137 56L137 45L157 45L157 82L176 82L176 58L196 58L196 43L215 43L215 62L235 62L235 62L254 62L254 80L274 80L274 61L293 61L293 57L313 57L313 46L333 46L333 58L352 58L352 39L372 39L372 46L391 46L391 74L411 74L411 65L430 65L430 65L450 65L450 61L450 0L450 0L430 0L430 0L411 0L411 0L391 0L391 0L372 0L372 0L352 0L352 0L333 0L333 0L313 0L313 0L293 0L293 0L274 0L274 0L254 0L254 0L235 0L235 0L215 0L215 0L196 0L196 0L176 0L176 0L157 0L157 0L137 0L137 0L117 0L117 0L98 0L98 0L78 0L78 0L59 0L59 0L39 0L39 0L20 0L20 0L0 0Z" fill="#aafb64"></path><path d="M0 20L20 20L20 43L39 43L39 22L59 22L59 31L78 31L78 38L98 38L98 20L117 20L117 27L137 27L137 52L157 52L157 21L176 21L176 13L196 13L196 54L215 54L215 31L235 31L235 44L254 44L254 37L274 37L274 42L293 42L293 38L313 38L313 37L333 37L333 43L352 43L352 48L372 48L372 14L391 14L391 27L411 27L411 27L430 27L430 47L450 47L450 25L450 0L450 0L430 0L430 0L411 0L411 0L391 0L391 0L372 0L372 0L352 0L352 0L333 0L333 0L313 0L313 0L293 0L293 0L274 0L274 0L254 0L254 0L235 0L235 0L215 0L215 0L196 0L196 0L176 0L176 0L157 0L157 0L137 0L137 0L117 0L117 0L98 0L98 0L78 0L78 0L59 0L59 0L39 0L39 0L20 0L20 0L0 0Z" fill="#baff5b"></path></svg>