<svg id="visual" viewBox="0 0 900 450" width="900" height="450" xmlns="http://www.w3.org/2000/svg" xmlns:xlink="http://www.w3.org/1999/xlink" version="1.1"><path d="M0 404L4.8 400.5C9.7 397 19.3 390 29 388.3C38.7 386.7 48.3 390.3 58 393.7C67.7 397 77.3 400 87 399.8C96.7 399.7 106.3 396.3 116 393C125.7 389.7 135.3 386.3 145 387.2C154.7 388 164.3 393 174 389C183.7 385 193.3 372 203 367.7C212.7 363.3 222.3 367.7 232 375C241.7 382.3 251.3 392.7 261 395.8C270.7 399 280.3 395 290 390.7C299.7 386.3 309.3 381.7 319 379.5C328.7 377.3 338.3 377.7 348 381.3C357.7 385 367.3 392 377 389.3C386.7 386.7 396.3 374.3 406 372.7C415.7 371 425.3 380 435.2 387C445 394 455 399 464.8 397C474.7 395 484.3 386 494 383.8C503.7 381.7 513.3 386.3 523 386.8C532.7 387.3 542.3 383.7 552 383C561.7 382.3 571.3 384.7 581 389C590.7 393.3 600.3 399.7 610 399.3C619.7 399 629.3 392 639 387C648.7 382 658.3 379 668 381C677.7 383 687.3 390 697 387.8C706.7 385.7 716.3 374.3 726 373.3C735.7 372.3 745.3 381.7 755 384.7C764.7 387.7 774.3 384.3 784 379.7C793.7 375 803.3 369 813 366.3C822.7 363.7 832.3 364.3 842 371.3C851.7 378.3 861.3 391.7 871 390.5C880.7 389.3 890.3 373.7 895.2 365.8L900 358L900 451L895.2 451C890.3 451 880.7 451 871 451C861.3 451 851.7 451 842 451C832.3 451 822.7 451 813 451C803.3 451 793.7 451 784 451C774.3 451 764.7 451 755 451C745.3 451 735.7 451 726 451C716.3 451 706.7 451 697 451C687.3 451 677.7 451 668 451C658.3 451 648.7 451 639 451C629.3 451 619.7 451 610 451C600.3 451 590.7 451 581 451C571.3 451 561.7 451 552 451C542.3 451 532.7 451 523 451C513.3 451 503.7 451 494 451C484.3 451 474.7 451 464.8 451C455 451 445 451 435.2 451C425.3 451 415.7 451 406 451C396.3 451 386.7 451 377 451C367.3 451 357.7 451 348 451C338.3 451 328.7 451 319 451C309.3 451 299.7 451 290 451C280.3 451 270.7 451 261 451C251.3 451 241.7 451 232 451C222.3 451 212.7 451 203 451C193.3 451 183.7 451 174 451C164.3 451 154.7 451 145 451C135.3 451 125.7 451 116 451C106.3 451 96.7 451 87 451C77.3 451 67.7 451 58 451C48.3 451 38.7 451 29 451C19.3 451 9.7 451 4.8 451L0 451Z" fill="#ffe5b7" stroke-linecap="round" stroke-linejoin="miter"></path></svg>