<svg id="visual" viewBox="0 0 900 450" width="900" height="450" xmlns="http://www.w3.org/2000/svg" xmlns:xlink="http://www.w3.org/1999/xlink" version="1.1"><path d="M490 450L471.8 440.7C453.7 431.3 417.3 412.7 392.5 394C367.7 375.3 354.3 356.7 366 337.8C377.7 319 414.3 300 444.3 281.2C474.3 262.3 497.7 243.7 502 225C506.3 206.3 491.7 187.7 465 169C438.3 150.3 399.7 131.7 406.3 112.8C413 94 465 75 471.8 56.2C478.7 37.3 440.3 18.7 421.2 9.3L402 0L900 0L900 9.3C900 18.7 900 37.3 900 56.2C900 75 900 94 900 112.8C900 131.7 900 150.3 900 169C900 187.7 900 206.3 900 225C900 243.7 900 262.3 900 281.2C900 300 900 319 900 337.8C900 356.7 900 375.3 900 394C900 412.7 900 431.3 900 440.7L900 450Z" fill="#ffaa00"></path><path d="M518 450L510.3 440.7C502.7 431.3 487.3 412.7 495.7 394C504 375.3 536 356.7 549.7 337.8C563.3 319 558.7 300 547 281.2C535.3 262.3 516.7 243.7 497.8 225C479 206.3 460 187.7 475.7 169C491.3 150.3 541.7 131.7 561.3 112.8C581 94 570 75 549.7 56.2C529.3 37.3 499.7 18.7 484.8 9.3L470 0L900 0L900 9.3C900 18.7 900 37.3 900 56.2C900 75 900 94 900 112.8C900 131.7 900 150.3 900 169C900 187.7 900 206.3 900 225C900 243.7 900 262.3 900 281.2C900 300 900 319 900 337.8C900 356.7 900 375.3 900 394C900 412.7 900 431.3 900 440.7L900 450Z" fill="#ff9500"></path><path d="M588 450L591.3 440.7C594.7 431.3 601.3 412.7 604.5 394C607.7 375.3 607.3 356.7 585.5 337.8C563.7 319 520.3 300 510.7 281.2C501 262.3 525 243.7 537.5 225C550 206.3 551 187.7 548.8 169C546.7 150.3 541.3 131.7 558 112.8C574.7 94 613.3 75 606.5 56.2C599.7 37.3 547.3 18.7 521.2 9.3L495 0L900 0L900 9.3C900 18.7 900 37.3 900 56.2C900 75 900 94 900 112.8C900 131.7 900 150.3 900 169C900 187.7 900 206.3 900 225C900 243.7 900 262.3 900 281.2C900 300 900 319 900 337.8C900 356.7 900 375.3 900 394C900 412.7 900 431.3 900 440.7L900 450Z" fill="#ff7e00"></path><path d="M631 450L635.8 440.7C640.7 431.3 650.3 412.7 655.2 394C660 375.3 660 356.7 659 337.8C658 319 656 300 662.2 281.2C668.3 262.3 682.7 243.7 674.2 225C665.7 206.3 634.3 187.7 627 169C619.7 150.3 636.3 131.7 638 112.8C639.7 94 626.3 75 627.5 56.2C628.7 37.3 644.3 18.7 652.2 9.3L660 0L900 0L900 9.3C900 18.7 900 37.3 900 56.2C900 75 900 94 900 112.8C900 131.7 900 150.3 900 169C900 187.7 900 206.3 900 225C900 243.7 900 262.3 900 281.2C900 300 900 319 900 337.8C900 356.7 900 375.3 900 394C900 412.7 900 431.3 900 440.7L900 450Z" fill="#ff6500"></path><path d="M720 450L718.2 440.7C716.3 431.3 712.7 412.7 714.8 394C717 375.3 725 356.7 719.7 337.8C714.3 319 695.7 300 697.7 281.2C699.7 262.3 722.3 243.7 720.5 225C718.7 206.3 692.3 187.7 689.5 169C686.7 150.3 707.3 131.7 721.8 112.8C736.3 94 744.7 75 737.5 56.2C730.3 37.3 707.7 18.7 696.3 9.3L685 0L900 0L900 9.3C900 18.7 900 37.3 900 56.2C900 75 900 94 900 112.8C900 131.7 900 150.3 900 169C900 187.7 900 206.3 900 225C900 243.7 900 262.3 900 281.2C900 300 900 319 900 337.8C900 356.7 900 375.3 900 394C900 412.7 900 431.3 900 440.7L900 450Z" fill="#ff4600"></path><path d="M847 450L831.7 440.7C816.3 431.3 785.7 412.7 771.2 394C756.7 375.3 758.3 356.7 764.2 337.8C770 319 780 300 786.8 281.2C793.7 262.3 797.3 243.7 804.7 225C812 206.3 823 187.7 815.2 169C807.3 150.3 780.7 131.7 776.2 112.8C771.7 94 789.3 75 789 56.2C788.7 37.3 770.3 18.7 761.2 9.3L752 0L900 0L900 9.3C900 18.7 900 37.3 900 56.2C900 75 900 94 900 112.8C900 131.7 900 150.3 900 169C900 187.7 900 206.3 900 225C900 243.7 900 262.3 900 281.2C900 300 900 319 900 337.8C900 356.7 900 375.3 900 394C900 412.7 900 431.3 900 440.7L900 450Z" fill="#ff0000"></path></svg>