<svg id="visual" viewBox="0 0 900 600" width="900" height="600" xmlns="http://www.w3.org/2000/svg" xmlns:xlink="http://www.w3.org/1999/xlink" version="1.1"><rect x="0" y="0" width="900" height="600" fill="#000927"></rect><path d="M67 600L91 550L57 500L48 450L48 400L83 350L73 300L60 250L64 200L55 150L67 100L97 50L87 0L900 0L900 50L900 100L900 150L900 200L900 250L900 300L900 350L900 400L900 450L900 500L900 550L900 600Z" fill="#020043"></path><path d="M163 600L164 550L155 500L160 450L158 400L117 350L152 300L164 250L137 200L160 150L128 100L131 50L125 0L900 0L900 50L900 100L900 150L900 200L900 250L900 300L900 350L900 400L900 450L900 500L900 550L900 600Z" fill="#003679"></path><path d="M198 600L208 550L208 500L225 450L182 400L212 350L185 300L225 250L187 200L184 150L196 100L207 50L222 0L900 0L900 50L900 100L900 150L900 200L900 250L900 300L900 350L900 400L900 450L900 500L900 550L900 600Z" fill="#006aac"></path><path d="M299 600L262 550L301 500L253 450L259 400L286 350L288 300L286 250L270 200L252 150L273 100L255 50L274 0L900 0L900 50L900 100L900 150L900 200L900 250L900 300L900 350L900 400L900 450L900 500L900 550L900 600Z" fill="#00a1d9"></path><path d="M326 600L372 550L367 500L367 450L331 400L340 350L351 300L374 250L326 200L370 150L337 100L322 50L328 0L900 0L900 50L900 100L900 150L900 200L900 250L900 300L900 350L900 400L900 450L900 500L900 550L900 600Z" fill="#00daf7"></path><path d="M411 600L434 550L436 500L434 450L429 400L440 350L389 300L418 250L392 200L423 150L424 100L393 50L398 0L900 0L900 50L900 100L900 150L900 200L900 250L900 300L900 350L900 400L900 450L900 500L900 550L900 600Z" fill="#00f0ff"></path><path d="M461 600L501 550L473 500L496 450L473 400L480 350L500 300L463 250L507 200L482 150L468 100L494 50L495 0L900 0L900 50L900 100L900 150L900 200L900 250L900 300L900 350L900 400L900 450L900 500L900 550L900 600Z" fill="#00f0ff"></path><path d="M543 600L536 550L532 500L538 450L527 400L547 350L549 300L543 250L535 200L559 150L549 100L580 50L565 0L900 0L900 50L900 100L900 150L900 200L900 250L900 300L900 350L900 400L900 450L900 500L900 550L900 600Z" fill="#00daf7"></path><path d="M635 600L618 550L603 500L613 450L631 400L609 350L613 300L627 250L633 200L651 150L625 100L619 50L644 0L900 0L900 50L900 100L900 150L900 200L900 250L900 300L900 350L900 400L900 450L900 500L900 550L900 600Z" fill="#00a1d9"></path><path d="M673 600L669 550L695 500L689 450L714 400L696 350L715 300L697 250L717 200L714 150L673 100L687 50L681 0L900 0L900 50L900 100L900 150L900 200L900 250L900 300L900 350L900 400L900 450L900 500L900 550L900 600Z" fill="#006aac"></path><path d="M756 600L790 550L780 500L778 450L770 400L775 350L760 300L762 250L735 200L741 150L760 100L788 50L745 0L900 0L900 50L900 100L900 150L900 200L900 250L900 300L900 350L900 400L900 450L900 500L900 550L900 600Z" fill="#003679"></path><path d="M830 600L847 550L814 500L816 450L808 400L830 350L808 300L850 250L851 200L851 150L846 100L850 50L826 0L900 0L900 50L900 100L900 150L900 200L900 250L900 300L900 350L900 400L900 450L900 500L900 550L900 600Z" fill="#020043"></path></svg>