<svg id="visual" viewBox="0 0 900 450" width="900" height="450" xmlns="http://www.w3.org/2000/svg" xmlns:xlink="http://www.w3.org/1999/xlink" version="1.1"><rect x="0" y="0" width="900" height="450" fill="#140021"></rect><path d="M0 155L39 155L39 135L78 135L78 150L117 150L117 128L157 128L157 105L196 105L196 125L235 125L235 150L274 150L274 155L313 155L313 143L352 143L352 114L391 114L391 113L430 113L430 118L470 118L470 129L509 129L509 156L548 156L548 114L587 114L587 157L626 157L626 140L665 140L665 118L704 118L704 133L743 133L743 159L783 159L783 139L822 139L822 106L861 106L861 110L900 110L900 126L900 0L900 0L861 0L861 0L822 0L822 0L783 0L783 0L743 0L743 0L704 0L704 0L665 0L665 0L626 0L626 0L587 0L587 0L548 0L548 0L509 0L509 0L470 0L470 0L430 0L430 0L391 0L391 0L352 0L352 0L313 0L313 0L274 0L274 0L235 0L235 0L196 0L196 0L157 0L157 0L117 0L117 0L78 0L78 0L39 0L39 0L0 0Z" fill="#34c39c"></path><path d="M0 94L39 94L39 92L78 92L78 100L117 100L117 120L157 120L157 140L196 140L196 93L235 93L235 126L274 126L274 123L313 123L313 121L352 121L352 97L391 97L391 110L430 110L430 96L470 96L470 142L509 142L509 99L548 99L548 94L587 94L587 94L626 94L626 95L665 95L665 134L704 134L704 128L743 128L743 95L783 95L783 115L822 115L822 127L861 127L861 104L900 104L900 104L900 0L900 0L861 0L861 0L822 0L822 0L783 0L783 0L743 0L743 0L704 0L704 0L665 0L665 0L626 0L626 0L587 0L587 0L548 0L548 0L509 0L509 0L470 0L470 0L430 0L430 0L391 0L391 0L352 0L352 0L313 0L313 0L274 0L274 0L235 0L235 0L196 0L196 0L157 0L157 0L117 0L117 0L78 0L78 0L39 0L39 0L0 0Z" fill="#3dcc98"></path><path d="M0 82L39 82L39 122L78 122L78 119L117 119L117 99L157 99L157 89L196 89L196 96L235 96L235 96L274 96L274 101L313 101L313 95L352 95L352 80L391 80L391 112L430 112L430 124L470 124L470 105L509 105L509 89L548 89L548 125L587 125L587 94L626 94L626 80L665 80L665 121L704 121L704 90L743 90L743 114L783 114L783 125L822 125L822 103L861 103L861 97L900 97L900 106L900 0L900 0L861 0L861 0L822 0L822 0L783 0L783 0L743 0L743 0L704 0L704 0L665 0L665 0L626 0L626 0L587 0L587 0L548 0L548 0L509 0L509 0L470 0L470 0L430 0L430 0L391 0L391 0L352 0L352 0L313 0L313 0L274 0L274 0L235 0L235 0L196 0L196 0L157 0L157 0L117 0L117 0L78 0L78 0L39 0L39 0L0 0Z" fill="#4ad493"></path><path d="M0 70L39 70L39 95L78 95L78 97L117 97L117 94L157 94L157 72L196 72L196 107L235 107L235 76L274 76L274 71L313 71L313 88L352 88L352 107L391 107L391 82L430 82L430 75L470 75L470 90L509 90L509 90L548 90L548 108L587 108L587 94L626 94L626 100L665 100L665 81L704 81L704 84L743 84L743 104L783 104L783 103L822 103L822 72L861 72L861 77L900 77L900 108L900 0L900 0L861 0L861 0L822 0L822 0L783 0L783 0L743 0L743 0L704 0L704 0L665 0L665 0L626 0L626 0L587 0L587 0L548 0L548 0L509 0L509 0L470 0L470 0L430 0L430 0L391 0L391 0L352 0L352 0L313 0L313 0L274 0L274 0L235 0L235 0L196 0L196 0L157 0L157 0L117 0L117 0L78 0L78 0L39 0L39 0L0 0Z" fill="#59dc8d"></path><path d="M0 64L39 64L39 64L78 64L78 70L117 70L117 85L157 85L157 63L196 63L196 63L235 63L235 89L274 89L274 72L313 72L313 78L352 78L352 71L391 71L391 57L430 57L430 91L470 91L470 78L509 78L509 91L548 91L548 65L587 65L587 57L626 57L626 87L665 87L665 77L704 77L704 73L743 73L743 56L783 56L783 72L822 72L822 81L861 81L861 72L900 72L900 90L900 0L900 0L861 0L861 0L822 0L822 0L783 0L783 0L743 0L743 0L704 0L704 0L665 0L665 0L626 0L626 0L587 0L587 0L548 0L548 0L509 0L509 0L470 0L470 0L430 0L430 0L391 0L391 0L352 0L352 0L313 0L313 0L274 0L274 0L235 0L235 0L196 0L196 0L157 0L157 0L117 0L117 0L78 0L78 0L39 0L39 0L0 0Z" fill="#6ae485"></path><path d="M0 67L39 67L39 73L78 73L78 59L117 59L117 53L157 53L157 54L196 54L196 67L235 67L235 46L274 46L274 74L313 74L313 55L352 55L352 45L391 45L391 47L430 47L430 65L470 65L470 64L509 64L509 62L548 62L548 60L587 60L587 67L626 67L626 58L665 58L665 45L704 45L704 74L743 74L743 59L783 59L783 51L822 51L822 48L861 48L861 49L900 49L900 49L900 0L900 0L861 0L861 0L822 0L822 0L783 0L783 0L743 0L743 0L704 0L704 0L665 0L665 0L626 0L626 0L587 0L587 0L548 0L548 0L509 0L509 0L470 0L470 0L430 0L430 0L391 0L391 0L352 0L352 0L313 0L313 0L274 0L274 0L235 0L235 0L196 0L196 0L157 0L157 0L117 0L117 0L78 0L78 0L39 0L39 0L0 0Z" fill="#7ceb7c"></path><path d="M0 40L39 40L39 43L78 43L78 53L117 53L117 57L157 57L157 39L196 39L196 60L235 60L235 49L274 49L274 38L313 38L313 45L352 45L352 59L391 59L391 36L430 36L430 41L470 41L470 41L509 41L509 56L548 56L548 32L587 32L587 47L626 47L626 42L665 42L665 51L704 51L704 54L743 54L743 60L783 60L783 38L822 38L822 33L861 33L861 49L900 49L900 54L900 0L900 0L861 0L861 0L822 0L822 0L783 0L783 0L743 0L743 0L704 0L704 0L665 0L665 0L626 0L626 0L587 0L587 0L548 0L548 0L509 0L509 0L470 0L470 0L430 0L430 0L391 0L391 0L352 0L352 0L313 0L313 0L274 0L274 0L235 0L235 0L196 0L196 0L157 0L157 0L117 0L117 0L78 0L78 0L39 0L39 0L0 0Z" fill="#90f272"></path><path d="M0 36L39 36L39 32L78 32L78 43L117 43L117 19L157 19L157 41L196 41L196 42L235 42L235 30L274 30L274 24L313 24L313 44L352 44L352 42L391 42L391 34L430 34L430 21L470 21L470 34L509 34L509 29L548 29L548 37L587 37L587 33L626 33L626 26L665 26L665 37L704 37L704 36L743 36L743 35L783 35L783 30L822 30L822 34L861 34L861 39L900 39L900 23L900 0L900 0L861 0L861 0L822 0L822 0L783 0L783 0L743 0L743 0L704 0L704 0L665 0L665 0L626 0L626 0L587 0L587 0L548 0L548 0L509 0L509 0L470 0L470 0L430 0L430 0L391 0L391 0L352 0L352 0L313 0L313 0L274 0L274 0L235 0L235 0L196 0L196 0L157 0L157 0L117 0L117 0L78 0L78 0L39 0L39 0L0 0Z" fill="#a4f967"></path><path d="M0 14L39 14L39 12L78 12L78 11L117 11L117 9L157 9L157 22L196 22L196 20L235 20L235 15L274 15L274 28L313 28L313 11L352 11L352 14L391 14L391 15L430 15L430 24L470 24L470 13L509 13L509 13L548 13L548 8L587 8L587 25L626 25L626 7L665 7L665 10L704 10L704 8L743 8L743 10L783 10L783 18L822 18L822 21L861 21L861 8L900 8L900 20L900 0L900 0L861 0L861 0L822 0L822 0L783 0L783 0L743 0L743 0L704 0L704 0L665 0L665 0L626 0L626 0L587 0L587 0L548 0L548 0L509 0L509 0L470 0L470 0L430 0L430 0L391 0L391 0L352 0L352 0L313 0L313 0L274 0L274 0L235 0L235 0L196 0L196 0L157 0L157 0L117 0L117 0L78 0L78 0L39 0L39 0L0 0Z" fill="#baff5b"></path></svg>