<svg id="visual" viewBox="0 0 900 450" width="900" height="450" xmlns="http://www.w3.org/2000/svg" xmlns:xlink="http://www.w3.org/1999/xlink" version="1.1"><path d="M0 33L39 33L39 24L78 24L78 19L117 19L117 19L157 19L157 28L196 28L196 28L235 28L235 19L274 19L274 33L313 33L313 24L352 24L352 33L391 33L391 28L430 28L430 28L470 28L470 24L509 24L509 19L548 19L548 24L587 24L587 24L626 24L626 33L665 33L665 33L704 33L704 33L743 33L743 28L783 28L783 33L822 33L822 33L861 33L861 28L900 28L900 24L900 0L900 0L861 0L861 0L822 0L822 0L783 0L783 0L743 0L743 0L704 0L704 0L665 0L665 0L626 0L626 0L587 0L587 0L548 0L548 0L509 0L509 0L470 0L470 0L430 0L430 0L391 0L391 0L352 0L352 0L313 0L313 0L274 0L274 0L235 0L235 0L196 0L196 0L157 0L157 0L117 0L117 0L78 0L78 0L39 0L39 0L0 0Z" fill="#003313"></path><path d="M0 64L39 64L39 60L78 60L78 55L117 55L117 42L157 42L157 60L196 60L196 60L235 60L235 55L274 55L274 64L313 64L313 46L352 46L352 73L391 73L391 51L430 51L430 60L470 60L470 60L509 60L509 46L548 46L548 60L587 60L587 60L626 60L626 55L665 55L665 55L704 55L704 78L743 78L743 60L783 60L783 60L822 60L822 60L861 60L861 55L900 55L900 51L900 22L900 26L861 26L861 31L822 31L822 31L783 31L783 26L743 26L743 31L704 31L704 31L665 31L665 31L626 31L626 22L587 22L587 22L548 22L548 17L509 17L509 22L470 22L470 26L430 26L430 26L391 26L391 31L352 31L352 22L313 22L313 31L274 31L274 17L235 17L235 26L196 26L196 26L157 26L157 17L117 17L117 17L78 17L78 22L39 22L39 31L0 31Z" fill="#275517"></path><path d="M0 91L39 91L39 82L78 82L78 82L117 82L117 60L157 60L157 82L196 82L196 78L235 78L235 82L274 82L274 87L313 87L313 69L352 69L352 96L391 96L391 78L430 78L430 87L470 87L470 87L509 87L509 64L548 64L548 78L587 78L587 82L626 82L626 78L665 78L665 73L704 73L704 100L743 100L743 82L783 82L783 82L822 82L822 87L861 87L861 78L900 78L900 78L900 49L900 53L861 53L861 58L822 58L822 58L783 58L783 58L743 58L743 76L704 76L704 53L665 53L665 53L626 53L626 58L587 58L587 58L548 58L548 44L509 44L509 58L470 58L470 58L430 58L430 49L391 49L391 71L352 71L352 44L313 44L313 62L274 62L274 53L235 53L235 58L196 58L196 58L157 58L157 40L117 40L117 53L78 53L78 58L39 58L39 62L0 62Z" fill="#587712"></path><path d="M0 114L39 114L39 118L78 118L78 114L117 114L117 96L157 96L157 109L196 109L196 105L235 105L235 123L274 123L274 118L313 118L313 100L352 100L352 132L391 132L391 105L430 105L430 118L470 118L470 118L509 118L509 87L548 87L548 105L587 105L587 105L626 105L626 114L665 114L665 105L704 105L704 123L743 123L743 118L783 118L783 105L822 105L822 118L861 118L861 100L900 100L900 109L900 76L900 76L861 76L861 85L822 85L822 80L783 80L783 80L743 80L743 98L704 98L704 71L665 71L665 76L626 76L626 80L587 80L587 76L548 76L548 62L509 62L509 85L470 85L470 85L430 85L430 76L391 76L391 94L352 94L352 67L313 67L313 85L274 85L274 80L235 80L235 76L196 76L196 80L157 80L157 58L117 58L117 80L78 80L78 80L39 80L39 89L0 89Z" fill="#949700"></path><path d="M0 132L39 132L39 136L78 136L78 127L117 127L117 109L157 109L157 123L196 123L196 118L235 118L235 136L274 136L274 136L313 136L313 118L352 118L352 145L391 145L391 118L430 118L430 132L470 132L470 132L509 132L509 100L548 100L548 123L587 123L587 123L626 123L626 132L665 132L665 118L704 118L704 136L743 136L743 136L783 136L783 123L822 123L822 136L861 136L861 114L900 114L900 123L900 107L900 98L861 98L861 116L822 116L822 103L783 103L783 116L743 116L743 121L704 121L704 103L665 103L665 112L626 112L626 103L587 103L587 103L548 103L548 85L509 85L509 116L470 116L470 116L430 116L430 103L391 103L391 130L352 130L352 98L313 98L313 116L274 116L274 121L235 121L235 103L196 103L196 107L157 107L157 94L117 94L117 112L78 112L78 116L39 116L39 112L0 112Z" fill="#dbb400"></path><path d="M0 150L39 150L39 150L78 150L78 150L117 150L117 132L157 132L157 141L196 141L196 136L235 136L235 150L274 150L274 150L313 150L313 132L352 132L352 163L391 163L391 141L430 141L430 145L470 145L470 150L509 150L509 114L548 114L548 136L587 136L587 141L626 141L626 145L665 145L665 132L704 132L704 150L743 150L743 154L783 154L783 136L822 136L822 150L861 150L861 127L900 127L900 141L900 121L900 112L861 112L861 134L822 134L822 121L783 121L783 134L743 134L743 134L704 134L704 116L665 116L665 130L626 130L626 121L587 121L587 121L548 121L548 98L509 98L509 130L470 130L470 130L430 130L430 116L391 116L391 143L352 143L352 116L313 116L313 134L274 134L274 134L235 134L235 116L196 116L196 121L157 121L157 107L117 107L117 125L78 125L78 134L39 134L39 130L0 130Z" fill="#fabe00"></path><path d="M0 172L39 172L39 177L78 177L78 172L117 172L117 150L157 150L157 168L196 168L196 163L235 163L235 163L274 163L274 172L313 172L313 154L352 154L352 181L391 181L391 168L430 168L430 172L470 172L470 172L509 172L509 136L548 136L548 163L587 163L587 163L626 163L626 159L665 159L665 150L704 150L704 163L743 163L743 168L783 168L783 150L822 150L822 168L861 168L861 150L900 150L900 159L900 139L900 125L861 125L861 148L822 148L822 134L783 134L783 152L743 152L743 148L704 148L704 130L665 130L665 143L626 143L626 139L587 139L587 134L548 134L548 112L509 112L509 148L470 148L470 143L430 143L430 139L391 139L391 161L352 161L352 130L313 130L313 148L274 148L274 148L235 148L235 134L196 134L196 139L157 139L157 130L117 130L117 148L78 148L78 148L39 148L39 148L0 148Z" fill="#fabe00"></path><path d="M0 217L39 217L39 213L78 213L78 217L117 217L117 204L157 204L157 226L196 226L196 208L235 208L235 222L274 222L274 235L313 235L313 190L352 190L352 235L391 235L391 217L430 217L430 235L470 235L470 213L509 213L509 181L548 181L548 199L587 199L587 235L626 235L626 222L665 222L665 213L704 213L704 231L743 231L743 235L783 235L783 195L822 195L822 213L861 213L861 195L900 195L900 195L900 157L900 148L861 148L861 166L822 166L822 148L783 148L783 166L743 166L743 161L704 161L704 148L665 148L665 157L626 157L626 161L587 161L587 161L548 161L548 134L509 134L509 170L470 170L470 170L430 170L430 166L391 166L391 179L352 179L352 152L313 152L313 170L274 170L274 161L235 161L235 161L196 161L196 166L157 166L157 148L117 148L117 170L78 170L78 175L39 175L39 170L0 170Z" fill="#dbb400"></path><path d="M0 294L39 294L39 289L78 289L78 294L117 294L117 285L157 285L157 298L196 298L196 285L235 285L235 285L274 285L274 289L313 289L313 294L352 294L352 298L391 298L391 321L430 321L430 307L470 307L470 276L509 276L509 276L548 276L548 298L587 298L587 294L626 294L626 298L665 298L665 276L704 276L704 334L743 334L743 303L783 303L783 289L822 289L822 316L861 316L861 316L900 316L900 262L900 193L900 193L861 193L861 211L822 211L822 193L783 193L783 233L743 233L743 229L704 229L704 211L665 211L665 220L626 220L626 233L587 233L587 197L548 197L548 179L509 179L509 211L470 211L470 233L430 233L430 215L391 215L391 233L352 233L352 188L313 188L313 233L274 233L274 220L235 220L235 206L196 206L196 224L157 224L157 202L117 202L117 215L78 215L78 211L39 211L39 215L0 215Z" fill="#949700"></path><path d="M0 379L39 379L39 406L78 406L78 393L117 393L117 388L157 388L157 384L196 384L196 379L235 379L235 402L274 402L274 397L313 397L313 384L352 384L352 388L391 388L391 397L430 397L430 397L470 397L470 397L509 397L509 402L548 402L548 393L587 393L587 406L626 406L626 393L665 393L665 393L704 393L704 406L743 406L743 402L783 402L783 384L822 384L822 393L861 393L861 397L900 397L900 384L900 260L900 314L861 314L861 314L822 314L822 287L783 287L783 301L743 301L743 332L704 332L704 274L665 274L665 296L626 296L626 292L587 292L587 296L548 296L548 274L509 274L509 274L470 274L470 305L430 305L430 319L391 319L391 296L352 296L352 292L313 292L313 287L274 287L274 283L235 283L235 283L196 283L196 296L157 296L157 283L117 283L117 292L78 292L78 287L39 287L39 292L0 292Z" fill="#587712"></path><path d="M0 402L39 402L39 420L78 420L78 411L117 411L117 406L157 406L157 397L196 397L196 402L235 402L235 420L274 420L274 420L313 420L313 406L352 406L352 402L391 402L391 411L430 411L430 420L470 420L470 415L509 415L509 415L548 415L548 411L587 411L587 420L626 420L626 406L665 406L665 415L704 415L704 420L743 420L743 424L783 424L783 406L822 406L822 406L861 406L861 411L900 411L900 406L900 382L900 395L861 395L861 391L822 391L822 382L783 382L783 400L743 400L743 404L704 404L704 391L665 391L665 391L626 391L626 404L587 404L587 391L548 391L548 400L509 400L509 395L470 395L470 395L430 395L430 395L391 395L391 386L352 386L352 382L313 382L313 395L274 395L274 400L235 400L235 377L196 377L196 382L157 382L157 386L117 386L117 391L78 391L78 404L39 404L39 377L0 377Z" fill="#275517"></path><path d="M0 451L39 451L39 451L78 451L78 451L117 451L117 451L157 451L157 451L196 451L196 451L235 451L235 451L274 451L274 451L313 451L313 451L352 451L352 451L391 451L391 451L430 451L430 451L470 451L470 451L509 451L509 451L548 451L548 451L587 451L587 451L626 451L626 451L665 451L665 451L704 451L704 451L743 451L743 451L783 451L783 451L822 451L822 451L861 451L861 451L900 451L900 451L900 404L900 409L861 409L861 404L822 404L822 404L783 404L783 422L743 422L743 418L704 418L704 413L665 413L665 404L626 404L626 418L587 418L587 409L548 409L548 413L509 413L509 413L470 413L470 418L430 418L430 409L391 409L391 400L352 400L352 404L313 404L313 418L274 418L274 418L235 418L235 400L196 400L196 395L157 395L157 404L117 404L117 409L78 409L78 418L39 418L39 400L0 400Z" fill="#003313"></path></svg>