<svg id="visual" viewBox="0 0 450 900" width="450" height="900" xmlns="http://www.w3.org/2000/svg" xmlns:xlink="http://www.w3.org/1999/xlink" version="1.1"><rect x="0" y="0" width="450" height="900" fill="#1e0021"></rect><path d="M0 289L113 206L225 295L338 302L450 347L450 901L338 901L225 901L113 901L0 901Z" fill="#ff7300"></path><path d="M0 411L113 238L225 293L338 326L450 277L450 901L338 901L225 901L113 901L0 901Z" fill="#f55f1d"></path><path d="M0 489L113 292L225 368L338 292L450 449L450 901L338 901L225 901L113 901L0 901Z" fill="#e84d2a"></path><path d="M0 374L113 522L225 437L338 373L450 395L450 901L338 901L225 901L113 901L0 901Z" fill="#d93b33"></path><path d="M0 441L113 535L225 482L338 549L450 447L450 901L338 901L225 901L113 901L0 901Z" fill="#c82b39"></path><path d="M0 510L113 513L225 514L338 468L450 493L450 901L338 901L225 901L113 901L0 901Z" fill="#b61c3d"></path><path d="M0 617L113 519L225 568L338 521L450 621L450 901L338 901L225 901L113 901L0 901Z" fill="#a20e3f"></path><path d="M0 637L113 616L225 653L338 633L450 639L450 901L338 901L225 901L113 901L0 901Z" fill="#8d033f"></path><path d="M0 697L113 717L225 631L338 723L450 694L450 901L338 901L225 901L113 901L0 901Z" fill="#78003d"></path><path d="M0 724L113 744L225 752L338 736L450 754L450 901L338 901L225 901L113 901L0 901Z" fill="#63003a"></path><path d="M0 828L113 824L225 767L338 799L450 761L450 901L338 901L225 901L113 901L0 901Z" fill="#4e0034"></path><path d="M0 866L113 841L225 869L338 828L450 826L450 901L338 901L225 901L113 901L0 901Z" fill="#3a002d"></path></svg>