<svg id="visual" viewBox="0 0 1826 2000" width="1826" height="2000" xmlns="http://www.w3.org/2000/svg" xmlns:xlink="http://www.w3.org/1999/xlink" version="1.1"><path d="M1770 2000L1767 1976.2C1764 1952.3 1758 1904.7 1758 1857C1758 1809.3 1764 1761.7 1764 1714C1764 1666.3 1758 1618.7 1758 1571.2C1758 1523.7 1764 1476.3 1764 1428.8C1764 1381.3 1758 1333.7 1758 1286C1758 1238.3 1764 1190.7 1764 1143C1764 1095.3 1758 1047.7 1755 1000C1752 952.3 1752 904.7 1752 857C1752 809.3 1752 761.7 1755 714C1758 666.3 1764 618.7 1767 571.2C1770 523.7 1770 476.3 1770 428.8C1770 381.3 1770 333.7 1767 286C1764 238.3 1758 190.7 1755 143C1752 95.3 1752 47.7 1752 23.8L1752 0L1826 0L1826 23.8C1826 47.7 1826 95.3 1826 143C1826 190.7 1826 238.3 1826 286C1826 333.7 1826 381.3 1826 428.8C1826 476.3 1826 523.7 1826 571.2C1826 618.7 1826 666.3 1826 714C1826 761.7 1826 809.3 1826 857C1826 904.7 1826 952.3 1826 1000C1826 1047.7 1826 1095.3 1826 1143C1826 1190.7 1826 1238.3 1826 1286C1826 1333.7 1826 1381.3 1826 1428.8C1826 1476.3 1826 1523.7 1826 1571.2C1826 1618.7 1826 1666.3 1826 1714C1826 1761.7 1826 1809.3 1826 1857C1826 1904.7 1826 1952.3 1826 1976.2L1826 2000Z" fill="#ffb900"></path><path d="M1369 2000L1381.2 1976.2C1393.3 1952.3 1417.7 1904.7 1417.7 1857C1417.7 1809.3 1393.3 1761.7 1375 1714C1356.7 1666.3 1344.3 1618.7 1350.3 1571.2C1356.3 1523.7 1380.7 1476.3 1365.5 1428.8C1350.3 1381.3 1295.7 1333.7 1289.7 1286C1283.7 1238.3 1326.3 1190.7 1356.7 1143C1387 1095.3 1405 1047.7 1392.7 1000C1380.3 952.3 1337.7 904.7 1328.7 857C1319.7 809.3 1344.3 761.7 1347.5 714C1350.7 666.3 1332.3 618.7 1320 571.2C1307.7 523.7 1301.3 476.3 1331.7 428.8C1362 381.3 1429 333.7 1441.3 286C1453.7 238.3 1411.3 190.7 1387 143C1362.7 95.3 1356.3 47.7 1353.2 23.8L1350 0L1753 0L1753 23.8C1753 47.7 1753 95.3 1756 143C1759 190.7 1765 238.3 1768 286C1771 333.7 1771 381.3 1771 428.8C1771 476.3 1771 523.7 1768 571.2C1765 618.7 1759 666.3 1756 714C1753 761.7 1753 809.3 1753 857C1753 904.7 1753 952.3 1756 1000C1759 1047.7 1765 1095.3 1765 1143C1765 1190.7 1759 1238.3 1759 1286C1759 1333.7 1765 1381.3 1765 1428.8C1765 1476.3 1759 1523.7 1759 1571.2C1759 1618.7 1765 1666.3 1765 1714C1765 1761.7 1759 1809.3 1759 1857C1759 1904.7 1765 1952.3 1768 1976.2L1771 2000Z" fill="#f9a113"></path><path d="M1222 2000L1240.3 1976.2C1258.7 1952.3 1295.3 1904.7 1298.5 1857C1301.7 1809.3 1271.3 1761.7 1250 1714C1228.7 1666.3 1216.3 1618.7 1225.3 1571.2C1234.3 1523.7 1264.7 1476.3 1240.3 1428.8C1216 1381.3 1137 1333.7 1128 1286C1119 1238.3 1180 1190.7 1225.7 1143C1271.3 1095.3 1301.7 1047.7 1286.3 1000C1271 952.3 1210 904.7 1197.8 857C1185.7 809.3 1222.3 761.7 1222.3 714C1222.3 666.3 1185.7 618.7 1161.3 571.2C1137 523.7 1125 476.3 1158.5 428.8C1192 381.3 1271 333.7 1295.3 286C1319.7 238.3 1289.3 190.7 1274.2 143C1259 95.3 1259 47.7 1259 23.8L1259 0L1351 0L1354.2 23.8C1357.3 47.7 1363.7 95.3 1388 143C1412.3 190.7 1454.7 238.3 1442.3 286C1430 333.7 1363 381.3 1332.7 428.8C1302.3 476.3 1308.7 523.7 1321 571.2C1333.3 618.7 1351.7 666.3 1348.5 714C1345.3 761.7 1320.7 809.3 1329.7 857C1338.7 904.7 1381.3 952.3 1393.7 1000C1406 1047.7 1388 1095.3 1357.7 1143C1327.3 1190.7 1284.7 1238.3 1290.7 1286C1296.7 1333.7 1351.3 1381.3 1366.5 1428.8C1381.7 1476.3 1357.3 1523.7 1351.3 1571.2C1345.3 1618.7 1357.7 1666.3 1376 1714C1394.3 1761.7 1418.7 1809.3 1418.7 1857C1418.7 1904.7 1394.3 1952.3 1382.2 1976.2L1370 2000Z" fill="#f08b20"></path><path d="M930 2000L920.8 1976.2C911.7 1952.3 893.3 1904.7 890.3 1857C887.3 1809.3 899.7 1761.7 912 1714C924.3 1666.3 936.7 1618.7 951.8 1571.2C967 1523.7 985 1476.3 954.5 1428.8C924 1381.3 845 1333.7 851.2 1286C857.3 1238.3 948.7 1190.7 970 1143C991.3 1095.3 942.7 1047.7 915.2 1000C887.7 952.3 881.3 904.7 899.5 857C917.7 809.3 960.3 761.7 951.3 714C942.3 666.3 881.7 618.7 854.3 571.2C827 523.7 833 476.3 845.2 428.8C857.3 381.3 875.7 333.7 900 286C924.3 238.3 954.7 190.7 960.7 143C966.7 95.3 948.3 47.7 939.2 23.8L930 0L1260 0L1260 23.8C1260 47.7 1260 95.3 1275.2 143C1290.3 190.7 1320.7 238.3 1296.3 286C1272 333.7 1193 381.3 1159.5 428.8C1126 476.3 1138 523.7 1162.3 571.2C1186.7 618.7 1223.3 666.3 1223.3 714C1223.3 761.7 1186.7 809.3 1198.8 857C1211 904.7 1272 952.3 1287.3 1000C1302.7 1047.7 1272.3 1095.3 1226.7 1143C1181 1190.7 1120 1238.3 1129 1286C1138 1333.7 1217 1381.3 1241.3 1428.8C1265.7 1476.3 1235.3 1523.7 1226.3 1571.2C1217.3 1618.7 1229.7 1666.3 1251 1714C1272.3 1761.7 1302.7 1809.3 1299.5 1857C1296.3 1904.7 1259.7 1952.3 1241.3 1976.2L1223 2000Z" fill="#e47529"></path><path d="M729 2000L720 1976.2C711 1952.3 693 1904.7 684 1857C675 1809.3 675 1761.7 675 1714C675 1666.3 675 1618.7 687.2 1571.2C699.3 1523.7 723.7 1476.3 711.5 1428.8C699.3 1381.3 650.7 1333.7 656.7 1286C662.7 1238.3 723.3 1190.7 738.5 1143C753.7 1095.3 723.3 1047.7 696 1000C668.7 952.3 644.3 904.7 653.5 857C662.7 809.3 705.3 761.7 705.3 714C705.3 666.3 662.7 618.7 653.5 571.2C644.3 523.7 668.7 476.3 686.8 428.8C705 381.3 717 333.7 720 286C723 238.3 717 190.7 708 143C699 95.3 687 47.7 681 23.8L675 0L931 0L940.2 23.8C949.3 47.7 967.7 95.3 961.7 143C955.7 190.7 925.3 238.3 901 286C876.7 333.7 858.3 381.3 846.2 428.8C834 476.3 828 523.7 855.3 571.2C882.7 618.7 943.3 666.3 952.3 714C961.3 761.7 918.7 809.3 900.5 857C882.3 904.7 888.7 952.3 916.2 1000C943.7 1047.7 992.3 1095.3 971 1143C949.7 1190.7 858.3 1238.3 852.2 1286C846 1333.7 925 1381.3 955.5 1428.8C986 1476.3 968 1523.7 952.8 1571.2C937.7 1618.7 925.3 1666.3 913 1714C900.7 1761.7 888.3 1809.3 891.3 1857C894.3 1904.7 912.7 1952.3 921.8 1976.2L931 2000Z" fill="#d6602f"></path><path d="M565 2000L555.8 1976.2C546.7 1952.3 528.3 1904.7 513.2 1857C498 1809.3 486 1761.7 489.2 1714C492.3 1666.3 510.7 1618.7 532 1571.2C553.3 1523.7 577.7 1476.3 571.5 1428.8C565.3 1381.3 528.7 1333.7 531.7 1286C534.7 1238.3 577.3 1190.7 589.5 1143C601.7 1095.3 583.3 1047.7 562 1000C540.7 952.3 516.3 904.7 510.3 857C504.3 809.3 516.7 761.7 510.7 714C504.7 666.3 480.3 618.7 480.3 571.2C480.3 523.7 504.7 476.3 519.8 428.8C535 381.3 541 333.7 547 286C553 238.3 559 190.7 559 143C559 95.3 553 47.7 550 23.8L547 0L676 0L682 23.8C688 47.7 700 95.3 709 143C718 190.7 724 238.3 721 286C718 333.7 706 381.3 687.8 428.8C669.7 476.3 645.3 523.7 654.5 571.2C663.7 618.7 706.3 666.3 706.3 714C706.3 761.7 663.7 809.3 654.5 857C645.3 904.7 669.7 952.3 697 1000C724.3 1047.7 754.7 1095.3 739.5 1143C724.3 1190.7 663.7 1238.3 657.7 1286C651.7 1333.7 700.3 1381.3 712.5 1428.8C724.7 1476.3 700.3 1523.7 688.2 1571.2C676 1618.7 676 1666.3 676 1714C676 1761.7 676 1809.3 685 1857C694 1904.7 712 1952.3 721 1976.2L730 2000Z" fill="#c54d34"></path><path d="M510 2000L497.8 1976.2C485.7 1952.3 461.3 1904.7 446.2 1857C431 1809.3 425 1761.7 431.2 1714C437.3 1666.3 455.7 1618.7 470.8 1571.2C486 1523.7 498 1476.3 491.8 1428.8C485.7 1381.3 461.3 1333.7 470.5 1286C479.7 1238.3 522.3 1190.7 528.5 1143C534.7 1095.3 504.3 1047.7 483 1000C461.7 952.3 449.3 904.7 449.3 857C449.3 809.3 461.7 761.7 455.7 714C449.7 666.3 425.3 618.7 419.2 571.2C413 523.7 425 476.3 440.2 428.8C455.3 381.3 473.7 333.7 479.8 286C486 238.3 480 190.7 477 143C474 95.3 474 47.7 474 23.8L474 0L548 0L551 23.8C554 47.7 560 95.3 560 143C560 190.7 554 238.3 548 286C542 333.7 536 381.3 520.8 428.8C505.7 476.3 481.3 523.7 481.3 571.2C481.3 618.7 505.7 666.3 511.7 714C517.7 761.7 505.3 809.3 511.3 857C517.3 904.7 541.7 952.3 563 1000C584.3 1047.7 602.7 1095.3 590.5 1143C578.3 1190.7 535.7 1238.3 532.7 1286C529.7 1333.7 566.3 1381.3 572.5 1428.8C578.7 1476.3 554.3 1523.7 533 1571.2C511.7 1618.7 493.3 1666.3 490.2 1714C487 1761.7 499 1809.3 514.2 1857C529.3 1904.7 547.7 1952.3 556.8 1976.2L566 2000Z" fill="#b23b36"></path><path d="M401 2000L394.8 1976.2C388.7 1952.3 376.3 1904.7 364.2 1857C352 1809.3 340 1761.7 346.2 1714C352.3 1666.3 376.7 1618.7 394.8 1571.2C413 1523.7 425 1476.3 412.8 1428.8C400.7 1381.3 364.3 1333.7 367.5 1286C370.7 1238.3 413.3 1190.7 425.5 1143C437.7 1095.3 419.3 1047.7 404 1000C388.7 952.3 376.3 904.7 370.2 857C364 809.3 364 761.7 354.8 714C345.7 666.3 327.3 618.7 327.3 571.2C327.3 523.7 345.7 476.3 361 428.8C376.3 381.3 388.7 333.7 388.7 286C388.7 238.3 376.3 190.7 376.3 143C376.3 95.3 388.7 47.7 394.8 23.8L401 0L475 0L475 23.8C475 47.7 475 95.3 478 143C481 190.7 487 238.3 480.8 286C474.7 333.7 456.3 381.3 441.2 428.8C426 476.3 414 523.7 420.2 571.2C426.3 618.7 450.7 666.3 456.7 714C462.7 761.7 450.3 809.3 450.3 857C450.3 904.7 462.7 952.3 484 1000C505.3 1047.7 535.7 1095.3 529.5 1143C523.3 1190.7 480.7 1238.3 471.5 1286C462.3 1333.7 486.7 1381.3 492.8 1428.8C499 1476.3 487 1523.7 471.8 1571.2C456.7 1618.7 438.3 1666.3 432.2 1714C426 1761.7 432 1809.3 447.2 1857C462.3 1904.7 486.7 1952.3 498.8 1976.2L511 2000Z" fill="#9e2b37"></path><path d="M328 2000L318.8 1976.2C309.7 1952.3 291.3 1904.7 279.2 1857C267 1809.3 261 1761.7 267 1714C273 1666.3 291 1618.7 303.2 1571.2C315.3 1523.7 321.7 1476.3 315.7 1428.8C309.7 1381.3 291.3 1333.7 294.3 1286C297.3 1238.3 321.7 1190.7 330.8 1143C340 1095.3 334 1047.7 321.8 1000C309.7 952.3 291.3 904.7 288.2 857C285 809.3 297 761.7 290.8 714C284.7 666.3 260.3 618.7 251.3 571.2C242.3 523.7 248.7 476.3 257.8 428.8C267 381.3 279 333.7 282 286C285 238.3 279 190.7 285.2 143C291.3 95.3 309.7 47.7 318.8 23.8L328 0L402 0L395.8 23.8C389.7 47.7 377.3 95.3 377.3 143C377.3 190.7 389.7 238.3 389.7 286C389.7 333.7 377.3 381.3 362 428.8C346.7 476.3 328.3 523.7 328.3 571.2C328.3 618.7 346.7 666.3 355.8 714C365 761.7 365 809.3 371.2 857C377.3 904.7 389.7 952.3 405 1000C420.3 1047.7 438.7 1095.3 426.5 1143C414.3 1190.7 371.7 1238.3 368.5 1286C365.3 1333.7 401.7 1381.3 413.8 1428.8C426 1476.3 414 1523.7 395.8 1571.2C377.7 1618.7 353.3 1666.3 347.2 1714C341 1761.7 353 1809.3 365.2 1857C377.3 1904.7 389.7 1952.3 395.8 1976.2L402 2000Z" fill="#881d36"></path><path d="M182 2000L182 1976.2C182 1952.3 182 1904.7 178.8 1857C175.7 1809.3 169.3 1761.7 166.2 1714C163 1666.3 163 1618.7 169.2 1571.2C175.3 1523.7 187.7 1476.3 184.7 1428.8C181.7 1381.3 163.3 1333.7 163.3 1286C163.3 1238.3 181.7 1190.7 187.8 1143C194 1095.3 188 1047.7 181.8 1000C175.7 952.3 169.3 904.7 169.3 857C169.3 809.3 175.7 761.7 172.7 714C169.7 666.3 157.3 618.7 154.2 571.2C151 523.7 157 476.3 169.2 428.8C181.3 381.3 199.7 333.7 205.8 286C212 238.3 206 190.7 200 143C194 95.3 188 47.7 185 23.8L182 0L329 0L319.8 23.8C310.7 47.7 292.3 95.3 286.2 143C280 190.7 286 238.3 283 286C280 333.7 268 381.3 258.8 428.8C249.7 476.3 243.3 523.7 252.3 571.2C261.3 618.7 285.7 666.3 291.8 714C298 761.7 286 809.3 289.2 857C292.3 904.7 310.7 952.3 322.8 1000C335 1047.7 341 1095.3 331.8 1143C322.7 1190.7 298.3 1238.3 295.3 1286C292.3 1333.7 310.7 1381.3 316.7 1428.8C322.7 1476.3 316.3 1523.7 304.2 1571.2C292 1618.7 274 1666.3 268 1714C262 1761.7 268 1809.3 280.2 1857C292.3 1904.7 310.7 1952.3 319.8 1976.2L329 2000Z" fill="#711033"></path><path d="M72 2000L69 1976.2C66 1952.3 60 1904.7 57 1857C54 1809.3 54 1761.7 60 1714C66 1666.3 78 1618.7 84 1571.2C90 1523.7 90 1476.3 84 1428.8C78 1381.3 66 1333.7 66 1286C66 1238.3 78 1190.7 84 1143C90 1095.3 90 1047.7 87 1000C84 952.3 78 904.7 72 857C66 809.3 60 761.7 57 714C54 666.3 54 618.7 60 571.2C66 523.7 78 476.3 84 428.8C90 381.3 90 333.7 87 286C84 238.3 78 190.7 72 143C66 95.3 60 47.7 57 23.8L54 0L183 0L186 23.8C189 47.7 195 95.3 201 143C207 190.7 213 238.3 206.8 286C200.7 333.7 182.3 381.3 170.2 428.8C158 476.3 152 523.7 155.2 571.2C158.3 618.7 170.7 666.3 173.7 714C176.7 761.7 170.3 809.3 170.3 857C170.3 904.7 176.7 952.3 182.8 1000C189 1047.7 195 1095.3 188.8 1143C182.7 1190.7 164.3 1238.3 164.3 1286C164.3 1333.7 182.7 1381.3 185.7 1428.8C188.7 1476.3 176.3 1523.7 170.2 1571.2C164 1618.7 164 1666.3 167.2 1714C170.3 1761.7 176.7 1809.3 179.8 1857C183 1904.7 183 1952.3 183 1976.2L183 2000Z" fill="#5b052e"></path><path d="M0 2000L0 1976.2C0 1952.3 0 1904.7 0 1857C0 1809.3 0 1761.7 0 1714C0 1666.3 0 1618.7 0 1571.2C0 1523.7 0 1476.3 0 1428.8C0 1381.3 0 1333.7 0 1286C0 1238.3 0 1190.7 0 1143C0 1095.3 0 1047.7 0 1000C0 952.3 0 904.7 0 857C0 809.3 0 761.7 0 714C0 666.3 0 618.7 0 571.2C0 523.7 0 476.3 0 428.8C0 381.3 0 333.7 0 286C0 238.3 0 190.7 0 143C0 95.3 0 47.7 0 23.8L0 0L55 0L58 23.8C61 47.7 67 95.3 73 143C79 190.7 85 238.3 88 286C91 333.7 91 381.3 85 428.8C79 476.3 67 523.7 61 571.2C55 618.7 55 666.3 58 714C61 761.7 67 809.3 73 857C79 904.7 85 952.3 88 1000C91 1047.7 91 1095.3 85 1143C79 1190.7 67 1238.3 67 1286C67 1333.7 79 1381.3 85 1428.8C91 1476.3 91 1523.7 85 1571.2C79 1618.7 67 1666.3 61 1714C55 1761.7 55 1809.3 58 1857C61 1904.7 67 1952.3 70 1976.2L73 2000Z" fill="#440027"></path></svg>