<svg id="visual" viewBox="0 0 900 600" width="900" height="600" xmlns="http://www.w3.org/2000/svg" xmlns:xlink="http://www.w3.org/1999/xlink" version="1.1"><path d="M0 55L39 91L78 49L117 49L157 55L196 55L235 37L274 97L313 37L352 49L391 43L430 31L470 55L509 37L548 31L587 37L626 73L665 67L704 37L743 37L783 73L822 37L861 85L900 79L900 0L861 0L822 0L783 0L743 0L704 0L665 0L626 0L587 0L548 0L509 0L470 0L430 0L391 0L352 0L313 0L274 0L235 0L196 0L157 0L117 0L78 0L39 0L0 0Z" fill="#110b1c"></path><path d="M0 73L39 109L78 61L117 85L157 97L196 91L235 67L274 121L313 73L352 79L391 55L430 43L470 73L509 79L548 55L587 61L626 85L665 103L704 67L743 73L783 91L822 49L861 109L900 91L900 77L861 83L822 35L783 71L743 35L704 35L665 65L626 71L587 35L548 29L509 35L470 53L430 29L391 41L352 47L313 35L274 95L235 35L196 53L157 53L117 47L78 47L39 89L0 53Z" fill="#482144"></path><path d="M0 91L39 175L78 97L117 121L157 115L196 127L235 91L274 175L313 109L352 97L391 103L430 67L470 133L509 103L548 73L587 79L626 121L665 151L704 121L743 121L783 115L822 67L861 133L900 157L900 89L861 107L822 47L783 89L743 71L704 65L665 101L626 83L587 59L548 53L509 77L470 71L430 41L391 53L352 77L313 71L274 119L235 65L196 89L157 95L117 83L78 59L39 107L0 71Z" fill="#902f55"></path><path d="M0 127L39 217L78 121L117 133L157 145L196 163L235 139L274 211L313 121L352 145L391 151L430 103L470 151L509 133L548 121L587 91L626 163L665 175L704 133L743 169L783 139L822 85L861 151L900 199L900 155L861 131L822 65L783 113L743 119L704 119L665 149L626 119L587 77L548 71L509 101L470 131L430 65L391 101L352 95L313 107L274 173L235 89L196 125L157 113L117 119L78 95L39 173L0 89Z" fill="#d14b4b"></path><path d="M0 133L39 247L78 157L117 145L157 175L196 187L235 145L274 235L313 145L352 157L391 157L430 139L470 157L509 139L548 139L587 121L626 175L665 193L704 151L743 205L783 157L822 121L861 181L900 223L900 197L861 149L822 83L783 137L743 167L704 131L665 173L626 161L587 89L548 119L509 131L470 149L430 101L391 149L352 143L313 119L274 209L235 137L196 161L157 143L117 131L78 119L39 215L0 125Z" fill="#f98127"></path><path d="M0 175L39 301L78 235L117 199L157 253L196 205L235 211L274 289L313 211L352 199L391 229L430 187L470 211L509 169L548 205L587 151L626 223L665 289L704 175L743 277L783 235L822 175L861 217L900 301L900 221L861 179L822 119L783 155L743 203L704 149L665 191L626 173L587 119L548 137L509 137L470 155L430 137L391 155L352 155L313 143L274 233L235 143L196 185L157 173L117 143L78 155L39 245L0 131Z" fill="#ff9b00"></path><path d="M0 205L39 331L78 271L117 211L157 289L196 229L235 229L274 331L313 241L352 211L391 259L430 223L470 253L509 187L548 235L587 175L626 259L665 307L704 193L743 289L783 265L822 199L861 247L900 331L900 299L861 215L822 173L783 233L743 275L704 173L665 287L626 221L587 149L548 203L509 167L470 209L430 185L391 227L352 197L313 209L274 287L235 209L196 203L157 251L117 197L78 233L39 299L0 173Z" fill="#ff9b00"></path><path d="M0 223L39 343L78 277L117 223L157 295L196 241L235 259L274 349L313 253L352 241L391 283L430 229L470 265L509 193L548 241L587 187L626 277L665 337L704 223L743 319L783 289L822 217L861 265L900 343L900 329L861 245L822 197L783 263L743 287L704 191L665 305L626 257L587 173L548 233L509 185L470 251L430 221L391 257L352 209L313 239L274 329L235 227L196 227L157 287L117 209L78 269L39 329L0 203Z" fill="#f98127"></path><path d="M0 421L39 469L78 367L117 343L157 349L196 373L235 331L274 415L313 373L352 403L391 421L430 295L470 337L509 337L548 289L587 283L626 319L665 409L704 277L743 415L783 475L822 289L861 355L900 397L900 341L861 263L822 215L783 287L743 317L704 221L665 335L626 275L587 185L548 239L509 191L470 263L430 227L391 281L352 239L313 251L274 347L235 257L196 239L157 293L117 221L78 275L39 341L0 221Z" fill="#d14b4b"></path><path d="M0 517L39 529L78 511L117 535L157 517L196 505L235 529L274 559L313 529L352 529L391 523L430 505L470 505L509 517L548 487L587 541L626 511L665 565L704 505L743 529L783 565L822 493L861 505L900 547L900 395L861 353L822 287L783 473L743 413L704 275L665 407L626 317L587 281L548 287L509 335L470 335L430 293L391 419L352 401L313 371L274 413L235 329L196 371L157 347L117 341L78 365L39 467L0 419Z" fill="#902f55"></path><path d="M0 559L39 541L78 523L117 559L157 547L196 559L235 559L274 577L313 583L352 553L391 535L430 559L470 535L509 541L548 529L587 559L626 559L665 583L704 559L743 565L783 577L822 541L861 553L900 565L900 545L861 503L822 491L783 563L743 527L704 503L665 563L626 509L587 539L548 485L509 515L470 503L430 503L391 521L352 527L313 527L274 557L235 527L196 503L157 515L117 533L78 509L39 527L0 515Z" fill="#482144"></path><path d="M0 601L39 601L78 601L117 601L157 601L196 601L235 601L274 601L313 601L352 601L391 601L430 601L470 601L509 601L548 601L587 601L626 601L665 601L704 601L743 601L783 601L822 601L861 601L900 601L900 563L861 551L822 539L783 575L743 563L704 557L665 581L626 557L587 557L548 527L509 539L470 533L430 557L391 533L352 551L313 581L274 575L235 557L196 557L157 545L117 557L78 521L39 539L0 557Z" fill="#110b1c"></path></svg>